<?xml version="1.0" encoding="UTF-8" standalone="no"?>
<!-- Created with Inkscape (http://www.inkscape.org/) -->

<svg
   xmlns:dc="http://purl.org/dc/elements/1.1/"
   xmlns:cc="http://creativecommons.org/ns#"
   xmlns:rdf="http://www.w3.org/1999/02/22-rdf-syntax-ns#"
   xmlns:svg="http://www.w3.org/2000/svg"
   xmlns="http://www.w3.org/2000/svg"
   xmlns:sodipodi="http://sodipodi.sourceforge.net/DTD/sodipodi-0.dtd"
   xmlns:inkscape="http://www.inkscape.org/namespaces/inkscape"
   width="83.940826mm"
   height="144.49779mm"
   viewBox="0 0 297.42813 512.00003"
   id="svg18084"
   version="1.1"
   inkscape:version="0.91 r13725"
   sodipodi:docname="信息点图片预览.svg">
  <defs
     id="defs18086" />
  <sodipodi:namedview
     id="base"
     pagecolor="#ffffff"
     bordercolor="#666666"
     borderopacity="1.0"
     inkscape:pageopacity="0.0"
     inkscape:pageshadow="2"
     inkscape:zoom="1.673828"
     inkscape:cx="148.71407"
     inkscape:cy="255.99999"
     inkscape:document-units="px"
     inkscape:current-layer="layer1"
     showgrid="false"
     fit-margin-top="0"
     fit-margin-left="0"
     fit-margin-right="0"
     fit-margin-bottom="0"
     inkscape:window-width="1680"
     inkscape:window-height="1026"
     inkscape:window-x="0"
     inkscape:window-y="24"
     inkscape:window-maximized="1" />
  <metadata
     id="metadata18089">
    <rdf:RDF>
      <cc:Work
         rdf:about="">
        <dc:format>image/svg+xml</dc:format>
        <dc:type
           rdf:resource="http://purl.org/dc/dcmitype/StillImage" />
        <dc:title></dc:title>
      </cc:Work>
    </rdf:RDF>
  </metadata>
  <g
     inkscape:label="Layer 1"
     inkscape:groupmode="layer"
     id="layer1"
     transform="translate(260.14264,-147.79077)">
    <path
       style="fill:#006df0"
       inkscape:connector-curvature="0"
       d="m 2.7035436,147.79077 -228.2642436,0 c -19.01714,0 -34.58194,15.55016 -34.58194,34.58194 l 0,442.82148 c 0,19.0318 15.5648,34.5966 34.58194,34.5966 l 228.2642436,0 c 19.0171504,0 34.5819504,-15.5355 34.5819504,-34.5819 l 0,-442.83618 c 0,-19.03178 -15.5648,-34.58194 -34.5819504,-34.58194 z m -150.6450336,24.92708 73.025834,0 c 2.31131,0 4.18377,1.87246 4.18377,4.1984 0,2.31131 -1.87246,4.18377 -4.18377,4.18377 l -73.025834,0 c -2.31132,0 -4.18377,-1.87246 -4.18377,-4.18377 0,-2.32594 1.87245,-4.1984 4.18377,-4.1984 z m 36.51291,469.78194 c -9.55245,0 -17.29097,-7.7385 -17.29097,-17.3056 0,-9.5671 7.73852,-17.2909 17.29097,-17.2909 9.55246,0 17.290984,7.7238 17.290984,17.2909 0,9.5671 -7.738524,17.3056 -17.290984,17.3056 z m 124.650064,-46.709 -249.300124,0 0,-393.15751 249.300124,0 0,393.15751 z"
       id="path4256" />
    <rect
       style="fill:#646464;fill-opacity:0.75686275;stroke:none;stroke-width:0.06835937"
       id="rect4903"
       width="248.51807"
       height="26.846088"
       x="-235.46652"
       y="201.97832" />
    <path
       id="path4999"
       d="m -206.52512,215.17555 0,2.50015 q 0,0.18232 -0.12435,0.29948 -0.12434,0.11717 -0.31949,0.11717 l -17.33332,0 0,2.91685 q 0,0.27347 -0.26387,0.37765 -0.26386,0.10416 -0.48614,-0.0651 l -5.33394,-4.55753 q -0.13882,-0.1302 -0.13882,-0.29948 0,-0.18232 0.13882,-0.31251 l 5.33333,-4.60964 q 0.22216,-0.18231 0.48614,-0.0781 0.26387,0.11717 0.26387,0.37765 l 0,2.91684 17.33332,0 q 0.19441,0 0.31949,0.11718 0.12434,0.11717 0.12434,0.29948 z"
       inkscape:connector-curvature="0" />
    <path
       id="path18920"
       d="m -132.68406,381.03791 q 0,6 -4.2,10.2 -4.2,4.2 -10.2,4.2 -6,0 -10.2,-4.2 -4.2,-4.2 -4.2,-10.2 0,-6 4.2,-10.2 4.2,-4.2 10.2,-4.2 6,0 10.2,4.2 4.2,4.2 4.2,10.2 z m 76.800002,28.8 0,33.6 -105.600002,0 0,-14.4 24,-24 12,12 38.400007,-38.4 z m 7.2,-52.8 -120.000002,0 q -0.975,0 -1.6875,0.7125 -0.7125,0.7125 -0.7125,1.6875 l 0,91.2 q 0,0.975 0.7125,1.6875 0.7125,0.7125 1.6875,0.7125 l 120.000002,0 q 0.975001,0 1.687501,-0.7125 0.7125,-0.7125 0.7125,-1.6875 l 0,-91.2 q 0,-0.975 -0.7125,-1.6875 -0.7125,-0.7125 -1.687501,-0.7125 z m 12.000001,2.4 0,91.2 q 0,4.95 -3.525,8.475 -3.525,3.525 -8.475001,3.525 l -120.000002,0 q -4.95,0 -8.475,-3.525 -3.525,-3.525 -3.525,-8.475 l 0,-91.2 q 0,-4.95 3.525,-8.475 3.525,-3.525 8.475,-3.525 l 120.000002,0 q 4.950001,0 8.475001,3.525 3.525,3.525 3.525,8.475 z"
       inkscape:connector-curvature="0" />
    <path
       id="path19000"
       d="m -115.79809,577.81286 0,-12 q 0,-0.23864 -0.15341,-0.39205 -0.15341,-0.15341 -0.39204,-0.15341 l -1.09091,0 q -0.23864,0 -0.39205,0.15341 -0.15341,0.15341 -0.15341,0.39205 l 0,12 q 0,0.23863 0.15341,0.39204 0.15341,0.15341 0.39205,0.15341 l 1.09091,0 q 0.23863,0 0.39204,-0.15341 0.15341,-0.15341 0.15341,-0.39204 z m 4.36364,0 0,-12 q 0,-0.23864 -0.15341,-0.39205 -0.15341,-0.15341 -0.39205,-0.15341 l -1.0909,0 q -0.23864,0 -0.39205,0.15341 -0.15341,0.15341 -0.15341,0.39205 l 0,12 q 0,0.23863 0.15341,0.39204 0.15341,0.15341 0.39205,0.15341 l 1.0909,0 q 0.23864,0 0.39205,-0.15341 0.15341,-0.15341 0.15341,-0.39204 z m 4.36363,0 0,-12 q 0,-0.23864 -0.1534,-0.39205 -0.15341,-0.15341 -0.39205,-0.15341 l -1.09091,0 q -0.23863,0 -0.39204,0.15341 -0.15341,0.15341 -0.15341,0.39205 l 0,12 q 0,0.23863 0.15341,0.39204 0.15341,0.15341 0.39204,0.15341 l 1.09091,0 q 0.23864,0 0.39205,-0.15341 0.1534,-0.15341 0.1534,-0.39204 z m -9.27272,-16.90909 7.63636,0 -0.81818,-1.99432 q -0.11932,-0.15341 -0.28977,-0.1875 l -5.40341,0 q -0.17046,0.0341 -0.28977,0.1875 z m 15.81818,0.54545 0,1.09091 q 0,0.23864 -0.15341,0.39205 -0.15341,0.1534 -0.39204,0.1534 l -1.63637,0 0,16.15909 q 0,1.41478 -0.80113,2.44603 -0.80114,1.03125 -1.92614,1.03125 l -14.18182,0 q -1.125,0 -1.92614,-0.99716 -0.80113,-0.99716 -0.80113,-2.41193 l 0,-16.22728 -1.63637,0 q -0.23863,0 -0.39204,-0.1534 -0.15341,-0.15341 -0.15341,-0.39205 l 0,-1.09091 q 0,-0.23864 0.15341,-0.39204 0.15341,-0.15341 0.39204,-0.15341 l 5.26705,0 1.19318,-2.84659 q 0.25568,-0.63069 0.92046,-1.07387 0.66477,-0.44318 1.34659,-0.44318 l 5.45454,0 q 0.68182,0 1.34659,0.44318 0.66478,0.44318 0.92046,1.07387 l 1.19318,2.84659 5.26705,0 q 0.23863,0 0.39204,0.15341 0.15341,0.1534 0.15341,0.39204 z"
       inkscape:connector-curvature="0"
       style="fill:#ff0000" />
    <g
       id="g7350"
       transform="matrix(14.628572,0,0,14.628572,-188.26095,421.08438)">
      <path
         style="fill:#ffe680;fill-opacity:1;stroke:#fbff01;stroke-width:0;stroke-miterlimit:4;stroke-dasharray:none;stroke-opacity:1"
         d="m 6.5995732,3.6705934 0,3.3739087 0.5622291,0 -2.4623496,3.0523989 3.71378,-3.0523989 4.3409533,0 0,-3.3739087 z"
         id="rect7346"
         inkscape:connector-curvature="0"
         sodipodi:nodetypes="cccccccc" />
    </g>
    <text
       xml:space="preserve"
       style="font-style:italic;font-variant:normal;font-weight:normal;font-stretch:normal;font-size:10px;line-height:125%;font-family:sans-serif;-inkscape-font-specification:'sans-serif, Italic';text-align:start;letter-spacing:0px;word-spacing:0px;writing-mode:lr-tb;text-anchor:start;fill:#808080;fill-opacity:1;stroke:none;stroke-width:1px;stroke-linecap:butt;stroke-linejoin:miter;stroke-opacity:1"
       x="-87.921982"
       y="500.8132"
       id="text7342"
       sodipodi:linespacing="125%"><tspan
         sodipodi:role="line"
         x="-87.921982"
         y="500.8132"
         id="tspan7941">点击删除图片</tspan></text>
  </g>
</svg>
