<?xml version="1.0" encoding="UTF-8" standalone="no"?>
<!-- Created with Inkscape (http://www.inkscape.org/) -->

<svg
   xmlns:dc="http://purl.org/dc/elements/1.1/"
   xmlns:cc="http://creativecommons.org/ns#"
   xmlns:rdf="http://www.w3.org/1999/02/22-rdf-syntax-ns#"
   xmlns:svg="http://www.w3.org/2000/svg"
   xmlns="http://www.w3.org/2000/svg"
   xmlns:sodipodi="http://sodipodi.sourceforge.net/DTD/sodipodi-0.dtd"
   xmlns:inkscape="http://www.inkscape.org/namespaces/inkscape"
   width="83.940826mm"
   height="144.49779mm"
   viewBox="0 0 297.42812 512.00003"
   id="svg14958"
   version="1.1"
   inkscape:version="0.91 r13725"
   sodipodi:docname="修改重点区域边界.svg">
  <defs
     id="defs14960">
    <clipPath
       clipPathUnits="userSpaceOnUse"
       id="clipPath11789">
      <rect
         style="fill:#ff0000;fill-opacity:0.3647799;stroke:#ffdd55;stroke-width:1;stroke-miterlimit:4;stroke-dasharray:none;stroke-opacity:1"
         id="rect11791"
         width="274.81915"
         height="422.98251"
         x="436.69992"
         y="269.22516"
         clip-path="none" />
    </clipPath>
    <clipPath
       clipPathUnits="userSpaceOnUse"
       id="clipPath15614">
      <rect
         style="fill:#008080;fill-opacity:1;stroke:#008080;stroke-width:0.58197963;stroke-miterlimit:4;stroke-dasharray:1.16395926, 0.58197963;stroke-dashoffset:0;stroke-opacity:1"
         id="rect15616"
         width="160.25433"
         height="253.86044"
         x="435.33606"
         y="269.22516" />
    </clipPath>
    <clipPath
       clipPathUnits="userSpaceOnUse"
       id="clipPath16004">
      <rect
         style="fill:#ffffff;fill-opacity:1;stroke:#ffffff;stroke-width:1;stroke-miterlimit:4;stroke-dasharray:none;stroke-dashoffset:0;stroke-opacity:1"
         id="rect16006"
         width="268.24741"
         height="414.6185"
         x="439.34082"
         y="-21.931988" />
    </clipPath>
  </defs>
  <sodipodi:namedview
     id="base"
     pagecolor="#ffffff"
     bordercolor="#666666"
     borderopacity="1.0"
     inkscape:pageopacity="0.0"
     inkscape:pageshadow="2"
     inkscape:zoom="1.7363279"
     inkscape:cx="149.86592"
     inkscape:cy="256"
     inkscape:document-units="px"
     inkscape:current-layer="layer1"
     showgrid="false"
     fit-margin-top="0"
     fit-margin-left="0"
     fit-margin-right="0"
     fit-margin-bottom="0"
     inkscape:window-width="1680"
     inkscape:window-height="1026"
     inkscape:window-x="0"
     inkscape:window-y="24"
     inkscape:window-maximized="1" />
  <metadata
     id="metadata14963">
    <rdf:RDF>
      <cc:Work
         rdf:about="">
        <dc:format>image/svg+xml</dc:format>
        <dc:type
           rdf:resource="http://purl.org/dc/dcmitype/StillImage" />
        <dc:title />
      </cc:Work>
    </rdf:RDF>
  </metadata>
  <g
     inkscape:label="Layer 1"
     inkscape:groupmode="layer"
     id="layer1"
     transform="translate(-418.00056,-679.21937)">
    <g
       style="overflow:visible"
       id="g15938"
       transform="translate(-2.2224256,745.36137)"
       clip-path="url(#clipPath16004)">
      <g
         id="g15908"
         style="fill:#b2b2b2">
        <path
           id="path15910"
           d="m 346.72,131.38 -3.377,4.501 -2.25,2.251 -4.501,2.475 -0.676,2.026 c 0,0 -1.801,1.801 -1.575,2.927 0.226,1.126 0.226,3.151 0.226,3.151 0,0 -3.151,2.926 -4.502,3.826 -1.351,0.9 -3.152,2.926 -3.152,2.926 0,0 -1.125,1.351 -1.8,1.801 -0.675,0.449 -1.8,1.8 -2.701,3.151 -0.901,1.351 -1.801,2.25 -2.251,2.925 -0.45,0.675 -1.801,2.251 -2.476,4.727 -0.675,2.477 -2.476,5.402 -2.476,5.402 l -0.451,1.125 c 0.226,3.827 0.225,4.502 0.676,5.853 0.45,1.35 0.901,0.899 0.45,3.826 -0.45,2.925 -0.45,4.051 -0.9,5.402 -0.45,1.349 -1.801,3.825 -2.25,4.952 -0.451,1.125 0.9,3.15 0.9,3.15 0,0 0.676,2.927 0.225,3.602 -0.45,0.676 0.225,2.026 0.225,2.026 0,0 2.701,1.575 3.602,2.476 0.9,0.9 2.476,2.251 2.701,2.926 0.226,0.676 2.026,3.827 2.251,4.502 0.225,0.675 2.026,3.15 2.476,3.826 0.45,0.676 2.701,3.152 2.701,3.152 0,0 2.926,2.249 3.602,3.15 0.675,0.9 2.701,1.35 3.375,2.025 0.676,0.675 2.251,0.449 3.151,1.126 0.901,0.675 2.701,-0.451 3.602,0 0.9,0.45 3.377,-0.45 4.052,-0.9 0.675,-0.45 2.25,-2.025 3.376,-1.351 1.125,0.674 1.8,0 2.701,0.225 0.899,0.225 2.25,-0.899 3.15,-0.899 0.901,0 3.151,-0.901 3.826,-0.901 0.676,0 2.927,-1.352 3.828,-1.352 0.899,0 2.025,-0.898 3.15,-0.449 1.125,0.449 0.675,-0.899 2.701,-0.225 2.026,0.674 2.701,0 3.376,0.674 0.676,0.676 1.577,0.002 2.252,0.902 0.675,0.899 1.8,1.574 2.025,2.475 0.224,0.901 1.575,1.802 1.575,1.802 l 1.351,0.224 c 0,0 1.802,-1.35 2.251,-0.449 0.45,0.9 2.476,0.676 2.476,0.676 l 2.025,2.25 0.676,0.9 c 0,0 1.351,3.602 1.125,4.952 -0.225,1.35 -0.225,4.276 -0.9,4.951 -0.675,0.676 -1.125,3.602 -1.125,3.602 0,0 -0.901,0.9 1.125,2.701 2.026,1.802 3.377,3.376 4.052,4.275 0.676,0.901 2.477,3.378 2.7,4.953 0.226,1.575 0.676,2.475 1.577,4.501 0.9,2.026 2.025,2.251 2.25,4.503 0.226,2.25 0.675,2.251 0.45,3.825 -0.225,1.576 -0.9,1.801 -0.225,2.926 0.675,1.126 1.574,3.152 1.351,3.827 -0.225,0.675 -0.676,3.601 -0.676,3.601 l -0.45,1.351 -2.025,3.828 -1.351,2.024 c -0.45,1.575 -1.35,3.151 -1.125,5.402 0.224,2.251 -1.125,2.25 0.675,4.5 1.801,2.252 2.7,4.728 3.826,6.754 1.126,2.025 1.801,4.051 2.025,5.401 0.226,1.351 1.126,1.802 1.576,3.602 0.449,1.801 0.675,2.7 0.675,3.826 0,1.125 -0.226,4.052 0.226,4.727 0.449,0.675 0.675,2.702 0.9,3.602 0.225,0.901 -0.676,1.126 0.675,2.702 1.351,1.575 2.251,2.475 3.151,3.601 0.9,1.126 0.675,0.675 1.351,2.251 0.675,1.575 1.575,2.477 1.801,3.826 0.225,1.35 0.449,4.726 1.125,6.302 0.675,1.576 1.575,3.152 1.575,3.152 0,0 2.477,1.575 3.377,1.35 0.899,-0.225 2.701,-2.249 4.052,-1.575 1.351,0.675 2.476,0 3.601,0 1.125,0 2.251,-1.351 3.377,-1.351 1.125,0 2.7,-1.801 3.602,-1.35 0.9,0.449 2.024,-0.452 3.15,-1.577 1.126,-1.124 1.801,-2.024 3.826,-3.825 2.026,-1.801 1.801,-1.802 3.151,-2.927 1.351,-1.126 2.702,-3.602 4.277,-4.052 1.575,-0.45 2.025,-2.024 2.475,-3.15 0.451,-1.126 0.675,-1.801 1.351,-2.702 0.676,-0.899 0.225,0.228 1.351,-2.7 1.126,-2.927 2.478,-4.051 3.603,-4.727 1.125,-0.675 1.8,-2.025 2.475,-2.251 0.675,-0.226 1.801,0.675 1.351,-1.351 -0.449,-2.025 0,-4.951 -0.449,-5.626 -0.451,-0.677 -1.127,1.574 -0.901,-1.803 0.227,-3.375 2.701,-6.752 2.701,-6.752 0,0 3.376,-4.276 4.502,-4.951 1.126,-0.675 1.35,-1.35 2.927,-2.251 1.574,-0.899 4.951,-3.15 4.951,-4.276 0,-1.126 1.351,-4.052 1.351,-4.728 0,-0.675 0,-1.35 -0.449,-5.177 -0.451,-3.825 0.449,-2.926 -0.901,-6.527 -1.35,-3.601 -1.577,-8.103 -2.476,-9.228 -0.901,-1.126 -0.451,-4.053 -0.451,-4.952 0,-0.9 1.577,-3.151 2.252,-4.051 0.675,-0.901 3.601,-4.503 3.601,-4.503 0,0 4.501,-5.176 6.077,-7.651 1.576,-2.477 3.151,-4.727 4.276,-5.627 1.126,-0.9 3.827,-2.928 5.402,-5.178 1.576,-2.25 4.727,-6.526 4.953,-7.203 0.224,-0.674 2.024,-2.925 2.024,-2.925 0,0 2.476,-2.927 2.927,-4.502 0.449,-1.576 2.699,-10.354 2.249,-9.904 -0.448,0.451 -3.15,0.9 -4.051,1.125 -0.899,0.226 1.352,1.125 -5.177,0.676 -6.526,-0.451 -9.902,0.675 -9.902,0.675 -2.027,-0.451 -3.602,1.8 -4.278,-1.351 -0.675,-3.15 -1.126,-4.951 -2.475,-7.202 -1.351,-2.251 -2.252,-3.151 -4.276,-6.078 -2.025,-2.925 -1.802,-1.576 -3.603,-3.825 -1.8,-2.251 -2.251,-1.577 -3.376,-4.502 -1.125,-2.926 -2.025,-1.8 -3.376,-5.852 -1.351,-4.053 -2.251,-4.503 -2.926,-6.753 -0.676,-2.25 -1.575,-2.927 -2.026,-4.952 -0.45,-2.026 -5.626,-12.379 -6.302,-13.055 -0.676,-0.674 -1.801,-4.277 -1.576,-3.601 0.226,0.675 3.377,2.926 3.377,2.926 0,0 1.8,-0.676 2.476,-0.676 0.675,0 3.376,2.477 3.376,3.376 0,0.901 4.729,5.178 5.853,8.329 1.125,3.151 2.478,5.402 2.701,6.302 0.223,0.9 2.476,4.502 3.377,5.853 0.899,1.351 3.825,4.051 4.275,5.402 0.45,1.351 4.728,5.852 4.728,8.778 0,2.926 2.024,6.752 2.25,7.652 0.226,0.9 4.276,2.027 4.276,2.027 l 5.403,-1.351 c 0,0 8.102,-5.178 9.003,-5.178 0.899,0 8.104,-3.376 8.104,-3.376 0,0 2.925,-2.7 4.95,-4.275 2.026,-1.576 4.277,-4.501 4.728,-5.853 0.449,-1.351 1.35,-1.575 3.15,-3.602 1.801,-2.026 4.277,-4.051 2.702,-5.402 -1.576,-1.35 -2.477,-0.9 -4.727,-3.151 -2.251,-2.25 -2.026,-1.8 -3.602,-4.727 -1.576,-2.925 0.225,-6.302 -3.152,-2.925 -3.375,3.376 -2.025,4.276 -5.402,4.953 -3.375,0.674 -4.727,2.925 -6.302,0.674 -1.575,-2.251 -3.15,-0.9 -4.052,-4.277 -0.9,-3.376 -1.576,-3.602 -1.8,-4.951 -0.224,-1.351 0,-1.351 -1.801,-4.728 -1.8,-3.376 -0.45,-8.553 0.675,-5.627 1.126,2.926 2.926,3.376 5.853,5.402 2.925,2.025 4.277,3.602 6.977,3.827 2.701,0.224 4.952,0 5.402,0.449 0.45,0.451 0.9,-0.224 2.026,0.225 1.126,0.451 1.574,-0.674 2.025,1.125 0.45,1.801 2.926,2.026 4.051,3.151 1.126,1.125 1.126,0.676 4.053,1.125 2.927,0.451 6.979,0.451 6.979,0.451 l 4.275,-0.226 4.952,0.449 c 0,0 3.603,2.026 4.502,2.026 0.9,0 1.125,2.477 3.376,3.827 2.251,1.351 2.701,1.575 4.051,3.151 1.353,1.576 1.126,2.251 2.926,3.826 1.802,1.577 4.729,-0.224 5.179,-0.898 0.448,-0.676 2.699,-1.801 2.251,0 -0.451,1.8 2.249,1.124 1.574,5.402 -0.675,4.275 -1.126,3.15 0,6.077 1.125,2.926 6.077,11.929 6.303,14.63 0.226,2.701 1.575,1.801 1.8,4.278 0.226,2.475 1.575,3.375 1.575,5.176 0,1.801 1.577,2.25 1.801,3.602 0.227,1.351 2.702,0.224 3.377,0 0.676,-0.226 3.826,-3.152 3.826,-3.152 0,0 1.353,-0.449 1.126,-2.701 -0.226,-2.249 0,-1.8 0,-5.176 0,-3.376 -1.35,-3.376 -0.675,-6.751 0.675,-3.376 2.475,-5.403 2.926,-6.978 0.45,-1.575 2.251,-4.276 3.15,-4.502 0.9,-0.225 5.853,-2.7 6.979,-4.277 1.125,-1.575 2.926,-3.376 4.727,-5.176 1.8,-1.8 4.951,-4.051 5.627,-3.376 0.675,0.675 0.45,0.45 1.576,0.45 1.125,0 3.151,0.901 4.726,1.126 1.576,0.225 4.728,4.051 5.403,6.077 0.675,2.026 0.225,1.575 2.701,4.502 2.476,2.925 4.727,1.124 4.727,4.726 0,3.602 0,3.376 1.126,4.727 1.125,1.351 2.475,-2.476 3.825,-2.025 1.35,0.451 1.575,-0.45 2.7,3.151 1.125,3.602 1.8,3.602 2.027,7.203 0.224,3.601 -0.226,0.225 -0.226,3.15 0,2.927 -0.226,3.152 0.226,5.852 0.449,2.703 2.023,3.603 1.8,4.053 0,0 1.35,-3.826 0.899,-6.528 -0.448,-2.7 0,-6.526 1.126,-7.651 1.125,-1.127 2.252,-2.251 3.151,0.675 0.901,2.925 1.351,0.675 3.376,4.051 2.027,3.377 3.827,2.7 4.052,4.276 0.225,1.576 1.353,1.802 2.926,3.151 1.576,1.351 2.926,-0.224 4.727,-1.575 1.802,-1.351 6.752,-6.303 6.979,-8.329 0.224,-2.025 2.25,-1.576 -1.352,-6.751 -3.602,-5.177 -3.602,-6.978 -7.428,-10.129 -3.824,-3.151 -6.076,-3.376 -3.149,-7.428 2.926,-4.052 4.277,-6.752 6.077,-5.626 1.801,1.125 4.95,0.899 4.95,5.402 0,4.501 -0.9,9.453 2.251,4.051 3.151,-5.402 4.728,-8.553 3.826,-7.651 -0.899,0.9 2.026,-1.801 2.026,-1.801 0,0 0.226,-2.026 4.053,-2.926 3.825,-0.902 4.95,-1.351 6.302,-2.026 1.35,-0.676 5.177,-5.178 5.852,-7.203 0.675,-2.026 2.476,-5.627 2.026,-7.202 -0.45,-1.577 -2.702,-9.228 -3.152,-9.004 -0.449,0.226 -0.224,0.226 -3.149,-2.925 -2.928,-3.151 -4.953,-5.402 -5.403,-6.753 -0.45,-1.351 -1.576,-1.576 -0.226,-3.376 1.352,-1.8 2.027,-1.575 2.252,-3.151 0.224,-1.575 2.024,-2.926 -1.352,-1.8 -3.375,1.125 -0.9,0.451 -3.826,0.226 -2.926,-0.226 -10.578,1.575 -6.751,-3.151 3.825,-4.727 4.949,-7.652 5.625,-7.652 0.677,0 4.053,-3.827 4.277,-0.226 0.226,3.601 1.575,2.7 1.801,4.951 0.226,2.251 4.727,-2.475 4.727,-2.475 0,0 1.575,0.45 2.7,1.575 1.126,1.125 1.126,4.727 1.126,4.727 0,0 -0.9,-1.126 1.576,0.675 2.477,1.802 5.176,0.9 5.176,4.727 0,3.826 0,4.052 1.576,4.952 1.577,0.9 3.15,0.451 4.503,-0.675 1.35,-1.125 3.6,-5.177 3.6,-5.177 0,0 0.225,-1.576 -3.376,-3.827 -3.601,-2.25 -5.852,-3.825 -7.201,-4.951 -1.352,-1.125 -0.901,-4.501 0.448,-5.853 1.353,-1.351 2.026,-2.026 1.576,-3.826 -0.451,-1.802 0.676,-3.152 4.052,-2.927 3.376,0.226 4.051,-0.224 4.051,-0.224 0,0 0.677,0.449 0.677,-0.901 0,-1.35 4.275,-7.653 3.149,-7.653 -1.125,0 0.228,-1.575 -0.45,-4.051 -0.675,-2.477 2.251,-6.302 -0.224,-8.103 -2.476,-1.801 -3.152,-2.702 -4.727,-5.402 -1.575,-2.702 -1.352,-3.151 -7.203,-3.827 -5.852,-0.675 -8.553,1.351 -9.904,-0.449 -1.351,-1.801 -2.025,2.7 -2.925,-2.702 -0.9,-5.402 1.351,-9.004 1.351,-9.004 0,0 3.601,-2.25 4.5,-3.826 0.9,-1.576 4.501,-2.251 7.43,-1.125 2.926,1.125 7.201,0.9 10.804,1.577 3.601,0.674 3.376,2.925 5.177,0 1.8,-2.928 0,-4.277 1.35,-5.853 1.352,-1.576 2.926,-4.052 4.051,-2.477 1.125,1.577 3.379,3.151 5.18,1.125 1.8,-2.025 2.475,-2.25 2.475,-2.25 l 0.898,0.901 c 0,0 2.026,-1.127 2.026,0.898 0,2.027 2.027,4.278 0.901,5.853 -1.127,1.577 -2.7,1.351 -2.7,5.177 0,3.828 0,3.152 2.474,6.304 2.477,3.15 4.052,0.449 4.502,3.826 0.451,3.376 0.899,2.702 3.377,4.952 2.476,2.25 2.024,2.25 3.826,3.601 1.801,1.351 2.702,2.702 2.702,0.451 0,-2.251 0.225,-3.376 0,-5.402 -0.227,-2.025 1.801,-3.602 0.448,-6.978 -1.35,-3.376 -0.224,-3.151 -2.925,-5.627 -2.702,-2.475 -4.503,0.451 -5.401,-3.151 -0.901,-3.601 4.275,-5.177 5.627,-5.627 1.35,-0.449 3.374,-3.151 3.824,-1.35 0.451,1.8 -3.375,8.328 3.153,1.35 6.526,-6.977 3.601,-4.051 3.601,-4.051 0,0 3.376,-0.45 4.051,0 0.674,0.451 2.478,-2.026 1.8,-1.8 -0.675,0.226 -7.2,-3.602 -7.2,-3.602 l -4.729,-2.7 c 0,0 1.577,-1.126 2.702,-0.9 1.126,0.225 1.352,-2.251 2.478,-2.477 1.125,-0.225 8.777,1.577 10.354,2.477 1.575,0.9 7.201,1.125 6.525,0.675 -0.675,-0.451 -4.275,-3.151 -4.501,-4.052 -0.224,-0.9 -8.103,-2.701 -10.578,-2.476 -2.477,0.224 -4.726,0.899 -6.752,0.224 -2.027,-0.675 -4.952,-2.476 -6.528,-2.476 -1.575,0 -21.382,-3.826 -22.282,-3.601 -0.9,0.225 -2.252,4.501 -2.927,3.826 -0.675,-0.675 -1.8,-0.676 -4.953,-1.576 -3.149,-0.9 -7.427,-1.576 -13.055,-2.025 -5.626,-0.45 -9.451,0.45 -11.027,-1.351 -1.576,-1.8 -4.951,-1.125 -8.778,-1.351 -3.826,-0.224 -8.328,0 -10.354,0 -2.026,0 -6.751,-0.224 -7.877,-0.45 -1.126,-0.226 -2.476,-1.801 -3.826,-2.025 -1.352,-0.226 -1.127,-0.675 -3.827,-1.125 -2.701,-0.451 -2.476,-3.376 -3.376,-0.901 -0.9,2.477 -0.451,1.801 -1.801,2.701 -1.351,0.901 -2.701,2.701 -3.602,2.701 -0.899,0 -4.5,0.225 -5.177,-0.225 -0.676,-0.45 -1.801,-0.9 -4.052,-0.9 -2.251,0 -2.251,0.224 -5.177,-0.226 -2.926,-0.45 -5.177,-0.226 -7.878,-1.575 -2.701,-1.351 -2.701,-2.251 -4.952,-2.026 -2.249,0.226 -2.249,-0.45 -5.402,-0.45 -3.15,0 -6.976,1.801 -9.003,2.026 -2.024,0.225 -6.526,-0.226 -8.102,-0.901 -1.577,-0.675 -2.026,-2.25 -7.879,-1.576 -5.852,0.676 -9.228,0.676 -8.103,-1.125 1.126,-1.8 2.476,-3.601 3.151,-3.826 0.676,-0.225 2.25,-1.35 1.124,-1.8 -1.124,-0.451 -2.25,-1.125 -4.95,-1.351 -2.702,-0.225 -2.478,0.9 -6.528,0.45 -4.051,-0.45 2.251,-1.575 -6.076,-1.35 -8.328,0.226 -10.354,0.9 -11.254,0.9 -0.901,0 -2.027,-1.8 -4.277,0.9 -2.251,2.701 -5.404,4.276 -9.904,4.501 -4.501,0.226 -4.727,-0.45 -9.002,1.125 -4.277,1.575 -6.979,-0.45 -6.078,3.151 0.899,3.601 2.026,4.952 2.026,5.627 0,0.675 -2.026,5.177 -4.501,2.476 -2.478,-2.701 -6.979,-13.28 -4.953,-6.077 2.025,7.202 6.526,9.679 2.251,10.804 -4.276,1.125 -3.828,-0.45 -4.503,-0.901 -0.674,-0.45 0,-3.601 -0.225,-5.402 -0.226,-1.8 -0.675,-2.926 -1.575,-3.826 -0.899,-0.901 -0.676,-2.251 -2.476,-2.701 -1.801,-0.45 -0.225,-1.351 -3.151,-1.351 -2.926,0 -5.401,-1.801 -4.726,2.251 0.674,4.051 1.349,1.351 3.149,5.177 1.8,3.826 5.177,1.125 2.702,3.826 -2.476,2.701 -9.003,1.801 -10.579,0.676 -1.576,-1.126 -1.125,0.45 -4.053,-1.576 -2.926,-2.026 -2.024,-3.602 -5.4,-2.026 -3.376,1.576 -4.502,4.502 -5.853,3.376 -1.351,-1.126 -4.501,1.575 -5.627,0.226 -1.126,-1.351 -5.628,-1.351 -6.527,0 -0.901,1.35 -3.602,1.125 -7.428,2.926 -3.826,1.8 -2.702,0.224 -7.428,4.051 -4.728,3.826 -7.429,6.977 -9.003,4.501 -1.576,-2.475 -10.13,-6.752 -6.753,-7.428 3.377,-0.675 4.952,-2.025 6.753,-0.45 1.801,1.575 4.728,1.126 5.176,0 0.45,-1.126 2.477,-2.251 -0.225,-3.601 -2.701,-1.351 -2.926,-0.451 -7.202,-2.026 -4.277,-1.576 0,-1.125 -5.853,-2.026 -5.852,-0.9 -8.329,-1.35 -9.904,-1.8 -1.574,-0.45 -3.826,0 -6.076,-0.225 -2.252,-0.225 -3.826,-0.675 -5.853,-0.45 -2.025,0.225 -3.15,-0.225 -5.852,1.801 -2.702,2.026 -4.728,2.926 -6.528,4.501 -1.8,1.575 -6.526,4.727 -7.877,5.853 -1.351,1.125 -6.078,4.726 -6.528,6.077 -0.45,1.351 0.45,2.476 -1.351,3.376 -1.801,0.9 -3.601,0.9 -4.952,1.125 -1.351,0.225 0,-2.026 -1.351,0.225 -1.35,2.251 -0.9,10.354 0.225,9.228 1.125,-1.126 0.45,-4.726 5.402,-1.349 4.952,3.375 8.104,2.925 7.878,6.076 -0.225,3.151 3.376,2.926 3.826,3.602 0.45,0.674 2.701,-0.901 2.701,-0.901 0,0 4.952,-3.151 4.952,-4.726 0,-1.576 3.151,-5.177 3.151,-5.177 0,0 -2.252,-1.125 -2.252,-3.376 0,-2.25 0.677,-2.927 1.126,-5.178 0.45,-2.25 -2.476,10e-4 4.277,-4.277 6.751,-4.276 7.202,-1.349 7.202,-1.349 0,0 0.899,0.9 -0.226,2.25 -1.125,1.351 -3.151,4.953 -3.601,5.402 -0.451,0.451 2.026,4.052 3.15,4.052 1.126,0 3.377,-0.901 4.728,-0.676 1.351,0.226 3.601,-0.674 4.276,-0.224 0.676,0.45 2.251,1.8 1.125,2.926 -1.125,1.125 -3.602,2.475 -5.401,2.026 -1.802,-0.449 -4.503,-3.602 -2.927,0.9 1.576,4.502 -0.225,5.627 -1.576,5.402 -1.349,-0.225 -4.276,-2.475 -3.826,0.901 0.451,3.375 -2.925,5.626 -3.601,5.626 -0.676,0 -2.025,-0.225 -2.025,-0.225 0,0 -2.027,-0.226 -3.151,-0.226 -1.126,0 -3.377,1.125 -4.052,2.026 -0.676,0.9 -1.576,0.226 -2.701,0.226 -1.125,0 0,-1.351 -2.251,-1.801 -2.25,-0.45 -3.601,-0.9 -4.951,0 -1.351,0.9 -3.376,1.35 -4.277,0.675 -0.9,-0.675 0.451,-2.252 -1.351,-1.35 -1.8,0.9 -3.151,3.376 -3.826,3.602 -0.675,0.224 2.026,0 -0.675,0.224 -2.701,0.226 -3.826,0.902 -5.177,1.351 -1.351,0.451 0.45,3.151 -2.026,4.051 -2.476,0.9 -0.674,-1.125 -3.151,0.9 -2.476,2.027 -2.927,3.827 -3.826,4.052 -0.901,0.226 -0.675,0.675 -2.701,0.9 -2.026,0.225 -1.8,0.45 -2.927,0.675 -1.125,0.225 0.226,0.676 -2.25,0.225 -2.477,-0.45 -4.277,0.451 -3.827,1.351 0.45,0.9 8.778,3.376 2.476,3.151 -6.302,-0.225 -4.276,0.9 -2.926,1.8 1.351,0.9 2.025,1.8 2.701,2.026 0.676,0.225 1.8,2.927 1.8,2.927 0,0 1.801,-0.226 0.676,1.35 -1.125,1.576 0.45,2.026 -0.676,4.052 -1.125,2.026 -1.125,0.675 -2.025,1.125 -0.9,0.449 -2.251,2.026 -4.728,0.675 -2.476,-1.351 -4.275,-2.026 -7.202,-2.25 -2.926,-0.226 -0.901,-0.675 -2.926,0.899 -2.026,1.577 -2.476,3.377 -2.25,5.402 0.225,2.025 0.45,4.727 -0.226,6.078 -0.675,1.35 -0.675,2.701 -0.226,4.727 0.451,2.025 1.802,2.927 1.802,2.927 0,0 3.151,0.449 3.826,0.675 0.675,0.225 2.026,-0.45 3.826,0.674 1.801,1.126 3.602,1.577 4.727,0.226 1.125,-1.35 5.627,-2.926 6.979,-4.276 1.35,-1.351 2.25,-1.8 1.575,-3.151 -0.675,-1.351 1.351,-4.727 2.476,-5.402 1.125,-0.675 3.601,-1.351 3.601,-1.351 l 2.701,-4.051 c 0,0 2.251,-2.477 3.376,-2.251 1.125,0.225 7.427,2.477 6.978,-0.449 -0.45,-2.927 0.45,-3.827 1.125,-2.702 0.675,1.125 2.476,0.675 2.476,0.675 0,0 0.9,-0.449 1.575,0.226 0.675,0.674 1.575,3.602 2.926,4.276 1.351,0.676 2.476,1.351 3.377,1.8 0.9,0.451 1.801,0 3.602,1.576 1.8,1.576 3.601,2.477 3.825,3.151 0.227,0.675 1.802,2.251 1.802,2.251 0,0 1.575,0.45 1.125,1.351 -0.45,0.9 -2.7,3.602 -3.826,4.051 -1.126,0.45 -4.051,-0.451 -2.926,0.45 1.124,0.9 2.701,2.026 3.376,1.35 0.676,-0.675 4.951,-5.177 4.951,-5.177 0,0 -0.225,0.225 0,-1.126 0.226,-1.349 0,-2.925 1.126,-2.25 1.125,0.676 1.801,1.576 2.251,0.676 0.45,-0.901 0.9,-0.45 -0.226,-1.125 -1.126,-0.676 -3.826,-4.502 -5.177,-4.727 -1.351,-0.226 -4.728,-2.477 -4.728,-2.477 0,0 -0.674,-0.675 -2.25,-2.475 -1.576,-1.801 -2.025,-1.351 -2.477,-2.927 -0.449,-1.575 -1.801,-3.601 0.676,-3.151 2.477,0.45 4.051,2.025 6.302,3.376 2.251,1.351 1.802,1.8 3.827,3.151 2.025,1.351 2.252,2.702 3.826,2.477 1.575,-0.225 3.377,0.9 3.377,2.926 0,2.026 0.449,4.276 0.899,4.727 0.451,0.451 1.8,1.351 2.251,2.251 0.45,0.9 1.351,3.151 2.025,4.051 0.676,0.9 1.351,1.576 2.026,2.702 0.675,1.125 0.9,-0.226 1.575,0.225 0.676,0.45 1.576,0.224 1.576,-0.676 0,-0.9 0.224,-2.476 0.224,-2.476 0,0 3.153,-0.9 2.253,-1.351 -0.901,-0.45 -3.603,-3.151 -3.377,-4.051 0.225,-0.9 0,-2.7 1.124,-2.475 1.126,0.224 2.252,2.25 4.728,0.449 2.476,-1.801 5.402,-2.701 4.501,0 -0.899,2.701 0.227,3.15 0,6.077 -0.224,2.927 0.902,2.026 2.478,3.602 1.575,1.576 2.7,1.802 3.825,2.251 1.126,0.451 2.926,0.226 4.728,0.451 1.801,0.225 2.926,-0.676 4.502,-0.225 1.574,0.45 5.176,-0.226 5.852,0.225 0.676,0.45 3.377,-0.9 3.601,0.675 0.225,1.576 1.126,-0.225 0.451,3.376 -0.675,3.601 -1.576,6.077 -1.576,6.077 -2.476,4.727 -3.376,5.853 -4.502,6.078 -1.124,0.225 -1.8,0.9 -3.825,0.675 -2.026,-0.226 -4.502,0 -7.428,-0.675 -2.926,-0.676 -8.329,0.675 -10.579,-0.676 -2.251,-1.35 -5.402,-0.225 -6.754,-1.8 -1.35,-1.576 -3.6,-1.351 -4.501,-2.251 -0.9,-0.9 -1.35,-3.375 -1.35,0.226 0,3.602 -2.026,3.826 -2.476,5.627 -0.451,1.8 0.674,0.9 -1.802,0.675 -2.476,-0.226 -3.151,1.125 -6.752,-1.575 -3.602,-2.701 -5.402,-2.701 -7.202,-3.827 -1.802,-1.126 -3.602,2.025 -5.402,-1.575 -1.801,-3.602 -4.277,-0.676 -4.502,-3.602 -0.225,-2.927 0,-2.7 0.225,-4.501 0.227,-1.801 2.701,-3.376 1.576,-4.051 -1.126,-0.675 -0.226,-1.801 -1.801,-1.125 -1.576,0.675 -3.826,0.9 -5.627,1.575 -1.801,0.676 4.051,0 -4.727,0.676 -8.778,0.675 -11.255,1.575 -11.255,1.575 0,0 -0.675,-0.45 -1.801,0.45 -1.125,0.9 -2.701,2.251 -4.276,1.576 -1.575,-0.676 -2.476,-0.451 -3.826,-0.225 -1.351,0.225 -2.25,-1.125 -3.826,0 -1.576,1.124 -3.376,1.575 -4.052,1.124 -0.7,-0.46 -1.83,-2.26 -1.83,-2.26 z"
           inkscape:connector-curvature="0" />
        <path
           id="path15912"
           d="m 497.3,279.48 c -0.675,2.477 -3.151,6.077 -3.151,6.077 l -4.503,2.251 c 0,0 -1.573,1.351 -2.475,1.576 -0.9,0.224 -3.151,1.351 -3.151,1.351 0,0 -2.025,-0.451 -1.351,1.574 0.675,2.026 0.901,4.503 0.675,5.177 -0.224,0.676 -0.224,2.027 -0.224,3.828 0,1.8 -0.675,4.05 -1.801,4.5 -1.125,0.451 -2.251,0.901 -2.026,2.477 0.226,1.576 0.226,6.302 0.226,6.302 l 2.927,4.502 c 0,0 0.9,-0.675 2.701,-0.675 1.799,0 3.601,-1.574 3.601,-1.574 0,0 2.027,0.448 1.8,-2.026 -0.225,-2.477 0.902,-5.402 0.675,-6.078 -0.224,-0.675 2.027,-3.602 2.027,-4.276 0,-0.676 2.251,-3.825 2.251,-4.952 0,-1.125 1.575,-2.926 1.8,-4.275 0.225,-1.352 0.45,-4.502 0.9,-5.402 0.451,-0.9 0.676,-1.801 0.676,-2.701 0,-0.9 0,-2.701 0,-2.701 l -1.6,-4.96 z"
           inkscape:connector-curvature="0" />
        <path
           id="path15914"
           d="m 673.54,309.87 c -0.675,0.899 -1.125,10.579 -1.575,11.704 -0.45,1.125 -1.351,6.978 -0.899,8.327 0.449,1.352 1.124,6.303 0.675,7.879 -0.451,1.575 0.225,6.527 -0.902,6.302 -1.124,-0.226 -1.573,0.226 -1.573,0.9 0,0.676 1.573,2.025 1.573,2.025 0,0 2.703,10e-4 3.828,-0.225 1.125,-0.225 3.376,-1.351 5.177,-1.351 1.801,0 2.927,-1.351 4.501,-1.351 1.576,0 4.953,-1.124 5.853,-0.675 0.9,0.449 2.25,-2.701 3.826,-2.025 1.576,0.675 4.953,-1.576 6.528,-1.576 1.574,0 2.251,-2.477 4.052,-2.025 1.8,0.45 5.177,-0.9 6.753,-0.227 1.573,0.677 4.051,-2.25 5.176,0 1.126,2.252 4.503,3.152 4.503,4.277 0,1.125 -0.228,3.602 -0.228,3.602 l 2.702,-0.226 c 0,0 4.275,-2.701 4.952,-2.701 0.675,0 2.251,-2.25 2.251,-1.124 0,1.124 -1.352,3.602 -1.801,4.726 -0.45,1.126 0.449,2.477 0.449,2.477 0,0 2.253,1.125 1.352,3.15 -0.901,2.026 0.224,1.577 0,3.151 -0.226,1.576 0,0.9 0.898,1.8 0.902,0.901 2.479,2.479 3.828,2.252 1.352,-0.226 1.8,-1.575 2.926,-0.9 1.125,0.675 3.375,0.225 4.05,1.126 0.678,0.899 -4.275,3.15 4.278,-0.675 8.553,-3.828 9.451,-4.728 10.577,-6.079 1.129,-1.35 2.479,-2.7 3.377,-3.601 0.901,-0.9 0.227,-0.675 2.926,-2.701 2.701,-2.025 2.701,-1.125 5.179,-4.952 2.476,-3.825 4.275,-5.176 4.727,-5.852 0.45,-0.676 1.35,-0.9 1.575,-3.603 0.225,-2.7 2.025,-5.176 2.025,-6.076 0,-0.899 0.675,-2.249 0.45,-3.826 -0.225,-1.576 0.901,-3.825 -0.45,-6.076 -1.351,-2.252 0.675,-3.15 -1.351,-4.053 -2.026,-0.9 -3.376,-0.449 -3.826,-2.025 -0.451,-1.576 -2.252,-1.351 -2.927,-5.627 -0.675,-4.276 -3.376,-4.728 -3.376,-4.728 0,0 -2.701,-1.125 -2.026,-1.574 0.677,-0.451 0.901,-3.603 0.677,-4.503 -0.226,-0.9 -0.226,-2.926 -0.9,-4.275 -0.675,-1.352 -1.126,-3.151 -1.801,-4.728 -0.675,-1.575 -1.8,-2.026 -2.251,-3.826 -0.451,-1.8 -1.126,-2.477 -1.35,-2.926 -0.227,-0.45 -0.678,-2.7 -1.126,-0.226 -0.45,2.476 -1.352,7.202 -1.352,7.202 0,0 -1.801,3.828 -2.476,4.953 -0.675,1.124 -1.35,4.051 -2.475,3.825 -1.126,-0.225 -1.803,1.127 -2.701,0.9 -0.901,-0.226 -2.251,0.226 -2.926,-0.449 -0.675,-0.676 -2.476,-2.476 -3.377,-2.702 -0.9,-0.224 -1.575,-2.024 -2.251,-2.024 -0.677,0 -1.801,-1.577 -1.575,-2.477 0.224,-0.9 0.449,-2.925 0.675,-3.826 0.224,-0.9 1.576,-2.927 1.576,-2.927 0,0 0,-1.35 -1.126,-1.35 -1.125,0 -1.351,0 -3.827,-0.226 -2.475,-0.226 -3.149,-0.45 -4.052,-0.45 -0.898,0 0.902,-0.45 -1.575,0.225 -2.475,0.677 -3.601,2.477 -5.177,4.053 -1.573,1.575 -0.224,1.124 -1.573,1.575 -1.353,0.451 -1.126,-1.126 -2.027,1.351 -0.901,2.476 0.451,3.15 -0.227,3.601 -0.675,0.451 -5.4,-1.575 -5.4,-1.575 0,0 1.125,-0.226 0.224,-1.351 -0.899,-1.126 -1.8,-2.7 -3.149,-2.025 -1.353,0.675 -2.479,1.126 -3.377,2.251 -0.901,1.125 -0.901,2.025 -1.576,2.925 -0.675,0.9 -2.475,0.9 -2.701,1.801 -0.225,0.901 -0.225,3.151 -0.899,3.376 -0.675,0.226 -0.9,-0.898 -1.575,-1.124 -0.675,-0.225 -0.451,-2.026 -0.9,-0.9 -0.45,1.125 -0.9,0.899 -1.575,2.7 -0.677,1.801 -0.901,3.377 -1.576,3.602 -0.675,0.226 0,0.45 -2.027,1.576 -2.024,1.125 -2.475,1.125 -5.4,2.476 -2.925,1.351 -2.25,1.351 -4.276,1.575 -2.025,0.226 -2.477,0.901 -3.827,1.126 -1.352,0.225 -2.25,0.449 -3.602,1.8 -1.35,1.351 -2.475,1.8 -3.375,2.026 -0.9,0.226 -1.76,1.11 -1.76,1.11 z"
           inkscape:connector-curvature="0" />
        <path
           id="path15916"
           d="m 686.82,220.96 c -0.899,1.352 -3.825,5.402 -4.95,5.628 -1.126,0.224 -2.252,1.351 -3.152,1.125 -0.9,-0.226 -2.926,0 -3.601,2.926 -0.675,2.926 -1.801,4.502 -2.478,4.276 -0.675,-0.225 1.125,4.276 -2.7,2.477 -3.825,-1.801 -2.475,1.576 -2.926,2.477 -0.45,0.899 0.675,3.376 0.9,4.276 0.227,0.9 0.9,2.476 1.801,3.825 0.9,1.351 1.575,2.926 3.151,2.478 1.576,-0.452 6.526,0 6.526,0 0,0 1.803,0.675 2.927,0.675 1.125,0 1.351,-0.45 2.025,-0.45 0.674,0 2.025,-2.252 1.801,-2.476 -0.225,-0.227 -0.899,-0.901 0.45,-2.252 1.351,-1.351 2.926,-1.8 3.152,-3.376 0.225,-1.575 -0.45,-1.575 0.225,-2.477 0.675,-0.9 2.25,-0.673 1.801,-1.575 -0.451,-0.9 0.449,-0.675 -0.451,-2.477 -0.899,-1.8 -2.026,-2.476 -1.126,-4.727 0.901,-2.25 1.803,-2.701 1.577,-4.051 -0.226,-1.352 1.125,-1.801 -0.451,-3.377 -1.574,-1.574 -2.25,-2.025 -3.376,-2.477 l -1.11,-0.46 z"
           inkscape:connector-curvature="0" />
        <path
           id="path15918"
           d="m 730.94,243.47 c 0.902,-0.225 4.052,-2.476 4.278,1.576 0.225,4.051 0.448,2.925 1.801,5.176 1.35,2.251 2.248,2.928 3.824,1.802 1.575,-1.127 3.376,-1.127 3.826,-3.151 0.451,-2.026 0.451,-2.026 1.801,-2.026 1.353,0 1.801,-0.225 2.479,0.677 0.674,0.898 1.122,-0.002 4.05,1.574 2.926,1.576 5.401,1.124 7.204,2.701 1.801,1.575 2.701,1.352 5.176,2.251 2.476,0.9 1.35,-0.45 3.601,2.026 2.252,2.475 1.353,3.15 2.476,4.276 1.125,1.125 2.027,-0.901 1.576,1.8 -0.451,2.701 -3.601,0 1.126,3.825 4.726,3.828 5.402,4.504 6.976,5.628 1.577,1.126 2.702,2.477 1.353,2.477 -1.353,0 -5.628,0 -6.077,-0.676 -0.451,-0.675 -2.476,-1.126 -3.828,-2.701 -1.349,-1.574 -4.275,-2.701 -4.949,-4.051 -0.677,-1.352 -1.577,-1.801 -2.702,-1.801 -1.125,0 -2.25,1.35 -3.827,2.926 -1.576,1.575 -0.898,-0.899 -2.926,-0.225 -2.027,0.676 -4.275,-0.226 -5.402,-1.126 -1.126,-0.9 -0.899,-2.25 -2.699,-1.575 -1.803,0.675 -2.926,0.225 -2.251,-1.125 0.675,-1.352 0.224,-3.152 0.224,-3.152 0,0 0.677,-2.251 -0.898,-2.7 -1.576,-0.449 -1.576,-2.025 -3.152,-2.477 -1.577,-0.449 -4.051,-1.575 -4.051,-1.575 0,0 -0.225,0 -0.901,-0.225 -0.675,-0.226 -0.675,-0.226 -2.476,-0.675 -1.8,-0.451 -3.152,-0.002 -4.051,-1.126 -0.902,-1.125 -0.451,-2.701 -0.451,-2.701 0,0 3.601,0.45 0,-2.251 l -3.601,-2.7 c 0,0 0.448,-0.226 0.224,-0.676 -0.23,-0.46 2.25,-0.01 2.25,-0.01 z"
           inkscape:connector-curvature="0" />
        <path
           id="path15920"
           d="m 629.65,224.78 c 0,0 1.125,1.127 2.926,0.901 1.8,-0.226 3.149,3.601 4.277,4.951 1.124,1.351 1.801,2.026 4.276,3.602 2.475,1.575 2.25,-1.351 5.627,3.376 3.376,4.726 1.8,1.801 3.376,4.726 1.575,2.929 2.476,4.503 3.376,5.18 0.899,0.675 1.576,2.474 1.802,3.15 0.224,0.675 1.799,2.7 1.799,3.376 0,0.675 0.451,2.476 -0.899,4.051 -1.351,1.576 -2.477,1.801 -2.477,1.801 0,0 -2.701,-1.351 -3.601,-2.701 -0.901,-1.35 -2.025,-2.476 -3.602,-5.176 -1.575,-2.702 -3.376,-5.628 -4.276,-6.978 -0.9,-1.352 -2.251,-2.703 -2.926,-4.052 -0.675,-1.352 -2.476,-5.402 -3.376,-5.853 -0.9,-0.451 -1.126,-1.8 -2.702,-3.376 -1.574,-1.576 -1.35,-2.926 -2.025,-3.826 -0.675,-0.9 -2.25,-2.928 -2.25,-2.928 l 0.66,-0.22 z"
           inkscape:connector-curvature="0" />
      </g>
    </g>
    <path
       style="fill:#006df0"
       inkscape:connector-curvature="0"
       d="m 680.84674,679.21934 -228.26424,0 c -19.01714,0 -34.58194,15.55017 -34.58194,34.58195 l 0,442.82151 c 0,19.0318 15.5648,34.5966 34.58194,34.5966 l 228.26424,0 c 19.01715,0 34.58195,-15.5355 34.58195,-34.5819 l 0,-442.83621 c 0,-19.03178 -15.5648,-34.58195 -34.58195,-34.58195 z m -150.64503,24.92709 73.02583,0 c 2.31131,0 4.18377,1.87246 4.18377,4.1984 0,2.31131 -1.87246,4.18377 -4.18377,4.18377 l -73.02583,0 c -2.31132,0 -4.18377,-1.87246 -4.18377,-4.18377 0,-2.32594 1.87245,-4.1984 4.18377,-4.1984 z m 36.51291,469.78197 c -9.55245,0 -17.29097,-7.7385 -17.29097,-17.3056 0,-9.5671 7.73852,-17.2909 17.29097,-17.2909 9.55246,0 17.29098,7.7238 17.29098,17.2909 0,9.5671 -7.73852,17.3056 -17.29098,17.3056 z m 124.65006,-46.709 -249.30012,0 0,-393.15754 249.30012,0 0,393.15754 z"
       id="path4256" />
    <g
       transform="translate(559.02106,197.22418)"
       id="layer1-7"
       inkscape:label="Layer 1">
      <rect
         y="536.08203"
         x="-117.11617"
         height="26.846088"
         width="248.51807"
         id="rect4903"
         style="fill:#646464;fill-opacity:0.75686275;stroke:none;stroke-width:0.06835937" />
      <path
         inkscape:connector-curvature="0"
         d="m -86.979915,549.27927 0,2.50015 q 0,0.18232 -0.124343,0.29948 -0.124343,0.11717 -0.319488,0.11717 l -17.333324,0 0,2.91685 q 0,0.27347 -0.26387,0.37765 -0.26386,0.10416 -0.48614,-0.0651 l -5.33394,-4.55753 q -0.13882,-0.1302 -0.13882,-0.29948 0,-0.18232 0.13882,-0.31251 l 5.33333,-4.60964 q 0.22216,-0.18231 0.48614,-0.0781 0.26387,0.11717 0.26387,0.37765 l 0,2.91684 17.333319,0 q 0.194414,0 0.319488,0.11718 0.124343,0.11717 0.124343,0.29948 z"
         id="path4999" />
      <path
         inkscape:connector-curvature="0"
         d="m 126.74105,555.96061 0,2.4545 q 0,0.5114 -0.36458,0.8693 -0.36459,0.358 -0.88542,0.358 l -2.5,0 q -0.52083,0 -0.88542,-0.358 -0.36458,-0.3579 -0.36458,-0.8693 l 0,-2.4545 q 0,-0.5114 0.36458,-0.8693 0.36459,-0.358 0.88542,-0.358 l 2.5,0 q 0.52083,0 0.88542,0.358 0.36458,0.3579 0.36458,0.8693 z m 0,-6.5455 0,2.4546 q 0,0.5113 -0.36458,0.8693 -0.36459,0.3579 -0.88542,0.3579 l -2.5,0 q -0.52083,0 -0.88542,-0.3579 -0.36458,-0.358 -0.36458,-0.8693 l 0,-2.4546 q 0,-0.5113 0.36458,-0.8693 0.36459,-0.3579 0.88542,-0.3579 l 2.5,0 q 0.52083,0 0.88542,0.3579 0.36458,0.358 0.36458,0.8693 z m 0,-6.5454 0,2.4545 q 0,0.5114 -0.36458,0.8693 -0.36459,0.358 -0.88542,0.358 l -2.5,0 q -0.52083,0 -0.88542,-0.358 -0.36458,-0.3579 -0.36458,-0.8693 l 0,-2.4545 q 0,-0.5114 0.36458,-0.8693 0.36459,-0.358 0.88542,-0.358 l 2.5,0 q 0.52083,0 0.88542,0.358 0.36458,0.3579 0.36458,0.8693 z"
         id="path5903" />
    </g>
    <path
       style="fill:#ffaaaa;fill-rule:evenodd;stroke:#ff5555;stroke-width:2.80999994px;stroke-linecap:butt;stroke-linejoin:miter;stroke-opacity:1"
       d="m 532.58966,785.83327 -76.85312,115.7721 c 7.20068,43.7452 1.17976,45.06989 12.69643,46.23187 69.32518,6.99457 75.4035,6.39188 75.4035,6.39188 l 140.58499,-34.58134 c -22.49361,-64.65197 -24.36807,-64.65197 -24.36807,-64.65197 l -63.73186,-13.53182 c -67.4808,-57.13427 -63.73187,-55.63072 -63.73187,-55.63072 z"
       id="path11793"
       inkscape:connector-curvature="0"
       sodipodi:nodetypes="ccsccccc" />
    <path
       id="path11885"
       d="m 538.00056,919.21938 q 0,-0.82813 -0.58594,-1.41407 -0.58593,-0.58593 -1.41406,-0.58593 -0.82812,0 -1.41406,0.58593 -0.58594,0.58594 -0.58594,1.41407 0,0.82812 0.58594,1.41406 0.58594,0.58594 1.41406,0.58594 0.82813,0 1.41406,-0.58594 0.58594,-0.58594 0.58594,-1.41406 z m 2,0 q 0,0.85156 -0.25781,1.39843 l -2.84375,6.04688 q -0.125,0.25781 -0.3711,0.40625 -0.24609,0.14844 -0.52734,0.14844 -0.28125,0 -0.52734,-0.14844 -0.2461,-0.14844 -0.36328,-0.40625 l -2.85157,-6.04688 q -0.25781,-0.54687 -0.25781,-1.39843 0,-1.65625 1.17188,-2.82813 1.17187,-1.17187 2.82812,-1.17187 1.65625,0 2.82813,1.17187 1.17187,1.17188 1.17187,2.82813 z"
       inkscape:connector-curvature="0"
       style="fill:#00ffff" />
    <path
       id="path11885-7"
       d="m 549.12308,924.44921 q 0,-0.82813 -0.58594,-1.41407 -0.58593,-0.58593 -1.41406,-0.58593 -0.82812,0 -1.41406,0.58593 -0.58594,0.58594 -0.58594,1.41407 0,0.82812 0.58594,1.41406 0.58594,0.58594 1.41406,0.58594 0.82813,0 1.41406,-0.58594 0.58594,-0.58594 0.58594,-1.41406 z m 2,0 q 0,0.85156 -0.25781,1.39843 l -2.84375,6.04688 q -0.125,0.25781 -0.3711,0.40625 -0.24609,0.14844 -0.52734,0.14844 -0.28125,0 -0.52734,-0.14844 -0.2461,-0.14844 -0.36328,-0.40625 l -2.85157,-6.04688 q -0.25781,-0.54687 -0.25781,-1.39843 0,-1.65625 1.17188,-2.82814 1.17187,-1.17187 2.82812,-1.17187 1.65625,0 2.82813,1.17187 1.17187,1.17189 1.17187,2.82814 z"
       inkscape:connector-curvature="0"
       style="fill:#00ffff" />
    <path
       id="path11885-9"
       d="m 560.47431,934.00814 q 0,-0.82813 -0.58594,-1.41407 -0.58593,-0.58593 -1.41406,-0.58593 -0.82812,0 -1.41406,0.58593 -0.58594,0.58594 -0.58594,1.41407 0,0.82812 0.58594,1.41406 0.58594,0.58594 1.41406,0.58594 0.82813,0 1.41406,-0.58594 0.58594,-0.58594 0.58594,-1.41406 z m 2,0 q 0,0.85156 -0.25781,1.39843 l -2.84375,6.04688 q -0.125,0.25781 -0.3711,0.40625 -0.24609,0.14844 -0.52734,0.14844 -0.28125,0 -0.52734,-0.14844 -0.2461,-0.14844 -0.36328,-0.40625 l -2.85157,-6.04688 q -0.25781,-0.54687 -0.25781,-1.39843 0,-1.65625 1.17188,-2.82813 1.17187,-1.17187 2.82812,-1.17187 1.65625,0 2.82813,1.17187 1.17187,1.17188 1.17187,2.82813 z"
       inkscape:connector-curvature="0"
       style="fill:#00ffff" />
    <path
       id="path11885-9-6"
       d="m 520.14365,918.59546 q 0,-0.82813 -0.58594,-1.41407 -0.58593,-0.58593 -1.41406,-0.58593 -0.82812,0 -1.41406,0.58593 -0.58594,0.58594 -0.58594,1.41407 0,0.82812 0.58594,1.41406 0.58594,0.58594 1.41406,0.58594 0.82813,0 1.41406,-0.58594 0.58594,-0.58594 0.58594,-1.41406 z m 2,0 q 0,0.85156 -0.25781,1.39843 l -2.84375,6.04688 q -0.125,0.25781 -0.3711,0.40625 -0.24609,0.14844 -0.52734,0.14844 -0.28125,0 -0.52734,-0.14844 -0.2461,-0.14844 -0.36328,-0.40625 l -2.85157,-6.04688 q -0.25781,-0.54687 -0.25781,-1.39843 0,-1.65625 1.17188,-2.82813 1.17187,-1.17187 2.82812,-1.17187 1.65625,0 2.82813,1.17187 1.17187,1.17188 1.17187,2.82813 z"
       inkscape:connector-curvature="0"
       style="fill:#ff6600" />
    <path
       id="path11885-9-9"
       d="m 599.17014,887.40494 q 0,-0.82813 -0.58594,-1.41407 -0.58593,-0.58593 -1.41406,-0.58593 -0.82812,0 -1.41406,0.58593 -0.58594,0.58594 -0.58594,1.41407 0,0.82812 0.58594,1.41406 0.58594,0.58594 1.41406,0.58594 0.82813,0 1.41406,-0.58594 0.58594,-0.58594 0.58594,-1.41406 z m 2,0 q 0,0.85156 -0.25781,1.39843 l -2.84375,6.04688 q -0.125,0.25781 -0.3711,0.40625 -0.24609,0.14844 -0.52734,0.14844 -0.28125,0 -0.52734,-0.14844 -0.2461,-0.14844 -0.36328,-0.40625 l -2.85157,-6.04688 q -0.25781,-0.54687 -0.25781,-1.39843 0,-1.65625 1.17188,-2.82813 1.17187,-1.17187 2.82812,-1.17187 1.65625,0 2.82813,1.17187 1.17187,1.17188 1.17187,2.82813 z"
       inkscape:connector-curvature="0"
       style="fill:#ff6600" />
    <path
       id="path11885-9-4"
       d="m 617.29637,912.35981 q 0,-0.82813 -0.58594,-1.41407 -0.58593,-0.58593 -1.41406,-0.58593 -0.82812,0 -1.41406,0.58593 -0.58594,0.58594 -0.58594,1.41407 0,0.82812 0.58594,1.41406 0.58594,0.58594 1.41406,0.58594 0.82813,0 1.41406,-0.58594 0.58594,-0.58594 0.58594,-1.41406 z m 2,0 q 0,0.85156 -0.25781,1.39843 l -2.84375,6.04688 q -0.125,0.25781 -0.3711,0.40625 -0.24609,0.14844 -0.52734,0.14844 -0.28125,0 -0.52734,-0.14844 -0.2461,-0.14844 -0.36328,-0.40625 l -2.85157,-6.04688 q -0.25781,-0.54687 -0.25781,-1.39843 0,-1.65625 1.17188,-2.82813 1.17187,-1.17187 2.82812,-1.17187 1.65625,0 2.82813,1.17187 1.17187,1.17188 1.17187,2.82813 z"
       inkscape:connector-curvature="0"
       style="fill:#00d455" />
    <circle
       style="fill:#ffffff;fill-opacity:1;stroke:#0000ff;stroke-width:1;stroke-miterlimit:4;stroke-dasharray:none;stroke-dashoffset:0;stroke-opacity:1"
       id="path15620"
       cx="459.63882"
       cy="902.42822"
       r="3.5845978" />
    <circle
       style="fill:#ffffff;fill-opacity:1;stroke:#0000ff;stroke-width:1;stroke-miterlimit:4;stroke-dasharray:none;stroke-dashoffset:0;stroke-opacity:1"
       id="path15620-1"
       cx="546.41174"
       cy="954.93268"
       r="3.5845978" />
    <path
       style="fill:none;fill-rule:evenodd;stroke:#ffff00;stroke-width:5;stroke-linecap:butt;stroke-linejoin:miter;stroke-miterlimit:4;stroke-dasharray:none;stroke-opacity:1"
       d="m 459.99739,904.29714 c 4.38527,42.91305 4.38527,42.91305 4.38527,42.91305 81.75405,8.14408 82.06729,7.83084 82.06729,7.83084"
       id="path16008"
       inkscape:connector-curvature="0" />
    <circle
       style="fill:#ffffff;fill-opacity:1;stroke:#ff0000;stroke-width:1;stroke-miterlimit:4;stroke-dasharray:none;stroke-dashoffset:0;stroke-opacity:1"
       id="path15620-5"
       cx="464.59924"
       cy="946.71777"
       r="3.5845978" />
    <path
       id="path16180"
       d="m 504.8577,962.3623 0.85715,0 0,-17.1429 -0.85715,0 q -0.9375,0 -1.80803,-0.3214 -0.87054,-0.3214 -1.67411,-0.9911 -0.80357,-0.6696 -1.33929,-1.2321 -0.53571,-0.5625 -1.3125,-1.4464 -0.0536,-0.08 -0.0937,-0.1206 -0.0402,-0.04 -0.10714,-0.1205 -0.067,-0.08 -0.12053,-0.1339 -1.92858,-2.1697 -3,-3.884 -0.375,-0.5893 -1.01786,-1.8214 -0.0268,-0.08 -0.28125,-0.6027 -0.25447,-0.5223 -0.49554,-0.9643 -0.24107,-0.4419 -0.53571,-0.9509 -0.29464,-0.5089 -0.57589,-0.8169 -0.28125,-0.3081 -0.49554,-0.3081 -1.90179,0 -3.09375,0.817 -1.19196,0.817 -1.19196,2.6116 0,1.1518 0.40178,2.2634 0.40179,1.1116 0.88393,1.8214 0.48214,0.7099 0.88393,1.4732 0.40178,0.7634 0.40178,1.2992 l -15.42857,0 q -1.33928,0 -2.38393,1.0312 -1.04464,1.0313 -1.04464,2.3973 0,1.3929 1.01786,2.4107 1.01786,1.0179 2.41071,1.0179 l 8.86608,0 q -0.40179,0.4554 -0.66965,1.2723 -0.26786,0.817 -0.26786,1.4866 0,1.8482 1.41965,3.1875 -0.48214,0.8572 -0.48214,1.8482 0,0.9911 0.46874,1.9688 0.46875,0.9777 1.27233,1.4062 -0.10715,0.6429 -0.10715,1.5 0,2.2768 1.29911,3.375 1.29911,1.0983 3.62946,1.0983 2.25,0 4.90179,-0.8572 2.65179,-0.8571 5.19643,-1.7143 2.54464,-0.8571 4.47321,-0.8571 z m 7.71429,-1.7143 q 0,-0.6964 -0.50893,-1.2054 -0.50893,-0.5089 -1.20536,-0.5089 -0.69643,0 -1.20535,0.5089 -0.50893,0.509 -0.50893,1.2054 0,0.6964 0.50893,1.2054 0.50892,0.5089 1.20535,0.5089 0.69643,0 1.20536,-0.5089 0.50893,-0.509 0.50893,-1.2054 z m 3.42857,-15.4286 0,17.1429 q 0,1.4196 -1.00446,2.4241 -1.00447,1.0045 -2.42411,1.0045 l -7.71429,0 q -1.58035,0 -5.97321,1.5803 -5.08929,1.8482 -8.49107,1.8482 -3.80357,0 -6.16072,-2.0759 -2.35714,-2.0759 -2.33035,-5.8259 l 0.0268,-0.1339 q -1.63393,-2.0357 -1.63393,-4.7678 0,-0.5893 0.0804,-1.1518 -0.88393,-1.5268 -0.99107,-3.1875 l -4.52679,0 q -2.8125,0 -4.83482,-2.0357 -2.02232,-2.0358 -2.02232,-4.8483 0,-2.7589 2.03571,-4.7946 2.03572,-2.0357 4.82143,-2.0357 l 10.01786,0 q -0.58929,-1.6072 -0.58929,-3.4286 0,-3.2678 2.18304,-5.0625 2.18304,-1.7946 5.53125,-1.7946 1.01786,0 1.86161,0.4687 0.84375,0.4688 1.47321,1.3259 0.62947,0.8572 1.08482,1.6875 0.45536,0.8304 0.99107,1.9286 0.53572,1.0982 0.88393,1.6607 0.9375,1.4732 2.67857,3.4554 0.0536,0.08 0.375,0.4553 0.32143,0.375 0.50893,0.5759 0.1875,0.2009 0.54911,0.5759 0.36161,0.375 0.64286,0.6027 0.28125,0.2277 0.60268,0.4821 0.32142,0.2545 0.62946,0.375 0.30804,0.1206 0.57589,0.1206 l 7.71429,0 q 1.41964,0 2.42411,1.0044 1.00446,1.0045 1.00446,2.4241 z"
       inkscape:connector-curvature="0" />
    <path
       id="path4332"
       d="m 660.43478,753.90855 8,0 0,-4 -8,0 0,4 z m 9.33333,0 1.33334,0 0,-9.3334 q 0,-0.1458 -0.10417,-0.401 -0.10417,-0.2552 -0.20833,-0.3594 l -2.92709,-2.9271 q -0.10416,-0.1041 -0.35416,-0.2083 -0.25,-0.1042 -0.40625,-0.1042 l 0,4.3334 q 0,0.4166 -0.29167,0.7083 -0.29167,0.2917 -0.70833,0.2917 l -6,0 q -0.41667,0 -0.70834,-0.2917 -0.29166,-0.2917 -0.29166,-0.7083 l 0,-4.3334 -1.33334,0 0,13.3334 1.33334,0 0,-4.3334 q 0,-0.4166 0.29166,-0.7083 0.29167,-0.2917 0.70834,-0.2917 l 8.66666,0 q 0.41667,0 0.70834,0.2917 0.29166,0.2917 0.29166,0.7083 l 0,4.3334 z m -4,-9.6667 0,-3.3333 q 0,-0.1354 -0.099,-0.2344 -0.099,-0.099 -0.23438,-0.099 l -2,0 q -0.13542,0 -0.23437,0.099 -0.099,0.099 -0.099,0.2344 l 0,3.3333 q 0,0.1354 0.099,0.2344 0.099,0.099 0.23437,0.099 l 2,0 q 0.13542,0 0.23438,-0.099 0.099,-0.099 0.099,-0.2344 z m 6.66667,0.3333 0,9.6667 q 0,0.4167 -0.29167,0.7083 -0.29166,0.2917 -0.70833,0.2917 l -14,0 q -0.41667,0 -0.70833,-0.2917 -0.29167,-0.2916 -0.29167,-0.7083 l 0,-14 q 0,-0.4167 0.29167,-0.7083 0.29166,-0.2917 0.70833,-0.2917 l 9.66667,0 q 0.41666,0 0.91666,0.2083 0.5,0.2084 0.79167,0.5 l 2.91667,2.9167 q 0.29166,0.2917 0.5,0.7917 0.20833,0.5 0.20833,0.9166 z"
       inkscape:connector-curvature="0" />
    <g
       id="g7350"
       transform="matrix(15.415092,0,0,15.435155,423.71431,933.78655)">
      <path
         style="fill:#ffe680;fill-opacity:1;stroke:#fbff01;stroke-width:0;stroke-miterlimit:4;stroke-dasharray:none;stroke-opacity:1"
         d="m 15.187978,-2.8879359 0,-3.373909 -0.562229,0 1.042619,-5.8508551 -2.29405,5.8508551 -4.3409527,0 0,3.373909 z"
         id="rect7346"
         inkscape:connector-curvature="0"
         sodipodi:nodetypes="cccccccc" />
    </g>
    <text
       xml:space="preserve"
       style="font-style:normal;font-variant:normal;font-weight:normal;font-stretch:normal;font-size:10px;line-height:125%;font-family:sans-serif;-inkscape-font-specification:'sans-serif, Normal';text-align:start;letter-spacing:0px;word-spacing:0px;writing-mode:lr-tb;text-anchor:start;fill:#000000;fill-opacity:1;stroke:none;stroke-width:1px;stroke-linecap:butt;stroke-linejoin:miter;stroke-opacity:1"
       x="576.95673"
       y="862.94037"
       id="text4523"
       sodipodi:linespacing="125%"><tspan
         sodipodi:role="line"
         id="tspan4525"
         x="576.95673"
         y="862.94037">保存修改结果</tspan></text>
  </g>
</svg>
