<?xml version="1.0" encoding="UTF-8" standalone="no"?>
<!-- Created with Inkscape (http://www.inkscape.org/) -->

<svg
   xmlns:dc="http://purl.org/dc/elements/1.1/"
   xmlns:cc="http://creativecommons.org/ns#"
   xmlns:rdf="http://www.w3.org/1999/02/22-rdf-syntax-ns#"
   xmlns:svg="http://www.w3.org/2000/svg"
   xmlns="http://www.w3.org/2000/svg"
   xmlns:sodipodi="http://sodipodi.sourceforge.net/DTD/sodipodi-0.dtd"
   xmlns:inkscape="http://www.inkscape.org/namespaces/inkscape"
   width="83.940826mm"
   height="144.49779mm"
   viewBox="0 0 297.42813 512.00003"
   id="svg9409"
   version="1.1"
   inkscape:version="0.91 r13725"
   sodipodi:docname="勾勒重点区域-地图自动移动.svg">
  <defs
     id="defs9411" />
  <sodipodi:namedview
     id="base"
     pagecolor="#ffffff"
     bordercolor="#666666"
     borderopacity="1.0"
     inkscape:pageopacity="0.0"
     inkscape:pageshadow="2"
     inkscape:zoom="5.6"
     inkscape:cx="98.234306"
     inkscape:cy="272.17502"
     inkscape:document-units="px"
     inkscape:current-layer="layer1-1"
     showgrid="false"
     fit-margin-top="0"
     fit-margin-left="0"
     fit-margin-right="0"
     fit-margin-bottom="0"
     inkscape:window-width="1680"
     inkscape:window-height="1026"
     inkscape:window-x="0"
     inkscape:window-y="24"
     inkscape:window-maximized="1" />
  <metadata
     id="metadata9414">
    <rdf:RDF>
      <cc:Work
         rdf:about="">
        <dc:format>image/svg+xml</dc:format>
        <dc:type
           rdf:resource="http://purl.org/dc/dcmitype/StillImage" />
        <dc:title></dc:title>
      </cc:Work>
    </rdf:RDF>
  </metadata>
  <g
     inkscape:label="Layer 1"
     inkscape:groupmode="layer"
     id="layer1"
     transform="translate(-479.85736,-782.07648)">
    <path
       style="fill:#006df0"
       inkscape:connector-curvature="0"
       d="m 742.70354,782.07648 -228.26424,0 c -19.01714,0 -34.58194,15.55017 -34.58194,34.58195 l 0,442.82147 c 0,19.0318 15.5648,34.5966 34.58194,34.5966 l 228.26424,0 c 19.01715,0 34.58195,-15.5355 34.58195,-34.5819 l 0,-442.83617 c 0,-19.03178 -15.5648,-34.58195 -34.58195,-34.58195 z m -150.64503,24.92709 73.02583,0 c 2.31131,0 4.18377,1.87246 4.18377,4.1984 0,2.31131 -1.87246,4.18377 -4.18377,4.18377 l -73.02583,0 c -2.31132,0 -4.18377,-1.87246 -4.18377,-4.18377 0,-2.32594 1.87245,-4.1984 4.18377,-4.1984 z m 36.51291,469.78193 c -9.55245,0 -17.29097,-7.7385 -17.29097,-17.3056 0,-9.5671 7.73852,-17.2909 17.29097,-17.2909 9.55246,0 17.29098,7.7238 17.29098,17.2909 0,9.5671 -7.73852,17.3056 -17.29098,17.3056 z m 124.65006,-46.709 -249.30012,0 0,-393.1575 249.30012,0 0,393.1575 z"
       id="path4256" />
    <rect
       y="836.18634"
       x="505.10092"
       height="26.846088"
       width="248.51807"
       id="rect4903"
       style="fill:#646464;fill-opacity:0.75686275;stroke:none;stroke-width:0.06835937" />
    <path
       inkscape:connector-curvature="0"
       d="m 535.23717,849.38356 0,2.50015 q 0,0.18232 -0.12434,0.29948 -0.12435,0.11717 -0.31949,0.11717 l -17.33333,0 0,2.91685 q 0,0.27347 -0.26387,0.37765 -0.26386,0.10416 -0.48614,-0.0651 l -5.33394,-4.55753 q -0.13882,-0.1302 -0.13882,-0.29948 0,-0.18232 0.13882,-0.31251 l 5.33333,-4.60964 q 0.22216,-0.18231 0.48614,-0.0781 0.26387,0.11717 0.26387,0.37765 l 0,2.91684 17.33332,0 q 0.19442,0 0.31949,0.11718 0.12434,0.11717 0.12434,0.29948 z"
       id="path4999" />
    <path
       inkscape:connector-curvature="0"
       d="m 748.95813,856.0649 0,2.4545 q 0,0.5114 -0.36458,0.8693 -0.36459,0.358 -0.88542,0.358 l -2.5,0 q -0.52083,0 -0.88542,-0.358 -0.36458,-0.3579 -0.36458,-0.8693 l 0,-2.4545 q 0,-0.5114 0.36458,-0.8693 0.36459,-0.358 0.88542,-0.358 l 2.5,0 q 0.52083,0 0.88542,0.358 0.36458,0.3579 0.36458,0.8693 z m 0,-6.5455 0,2.4546 q 0,0.5113 -0.36458,0.8693 -0.36459,0.3579 -0.88542,0.3579 l -2.5,0 q -0.52083,0 -0.88542,-0.3579 -0.36458,-0.358 -0.36458,-0.8693 l 0,-2.4546 q 0,-0.5113 0.36458,-0.8693 0.36459,-0.3579 0.88542,-0.3579 l 2.5,0 q 0.52083,0 0.88542,0.3579 0.36458,0.358 0.36458,0.8693 z m 0,-6.5454 0,2.4545 q 0,0.5114 -0.36458,0.8693 -0.36459,0.358 -0.88542,0.358 l -2.5,0 q -0.52083,0 -0.88542,-0.358 -0.36458,-0.3579 -0.36458,-0.8693 l 0,-2.4545 q 0,-0.5114 0.36458,-0.8693 0.36459,-0.358 0.88542,-0.358 l 2.5,0 q 0.52083,0 0.88542,0.358 0.36458,0.3579 0.36458,0.8693 z"
       id="path5903" />
    <path
       id="path9231-1-6-2"
       d="m 511.94368,1035.186 q -0.77083,0 -1.42188,0.3802 -0.65104,0.3802 -1.03125,1.0313 -0.3802,0.651 -0.3802,1.4218 0,0.7709 0.3802,1.4219 0.38021,0.6511 1.03125,1.0313 0.65105,0.3802 1.42188,0.3802 0.77083,0 1.42187,-0.3802 0.65105,-0.3802 1.03126,-1.0313 0.3802,-0.651 0.3802,-1.4219 0,-0.7708 -0.3802,-1.4218 -0.38021,-0.6511 -1.03126,-1.0313 -0.65104,-0.3802 -1.42187,-0.3802 z m 4.00001,2.8333 q 0,1.0886 -0.53646,2.0079 -0.53647,0.9192 -1.45574,1.4557 -0.91927,0.5364 -2.00781,0.5364 -1.08854,0 -2.00781,-0.5364 -0.91927,-0.5365 -1.45573,-1.4557 -0.53646,-0.9193 -0.53646,-2.0079 0,-1.0885 0.53646,-2.0078 0.53646,-0.9192 1.45573,-1.4557 0.91927,-0.5365 2.00781,-0.5365 1.08854,0 2.00781,0.5365 0.91927,0.5365 1.45574,1.4557 0.53646,0.9193 0.53646,2.0078 z"
       inkscape:connector-curvature="0"
       style="stroke:#ff6600;stroke-width:1;stroke-miterlimit:4;stroke-dasharray:none" />
    <path
       id="path9231-1-6-2-9"
       d="m 574.68543,952.14988 q -1.26831,0 -2.33953,0.62558 -1.0712,0.62559 -1.69679,1.69679 -0.62557,1.07121 -0.62557,2.33953 0,1.2683 0.62557,2.33951 0.62559,1.0712 1.69679,1.69679 1.07122,0.62559 2.33953,0.62559 1.2683,0 2.3395,-0.62559 1.07123,-0.62559 1.69681,-1.69679 0.62558,-1.07121 0.62558,-2.33951 0,-1.26832 -0.62558,-2.33953 -0.62558,-1.0712 -1.69681,-1.69679 -1.0712,-0.62558 -2.3395,-0.62558 z m 6.58151,4.6619 q 0,1.79105 -0.88268,3.3036 -0.88269,1.51254 -2.39523,2.39521 -1.51255,0.88269 -3.3036,0.88269 -1.79106,0 -3.3036,-0.88269 -1.51255,-0.88267 -2.39522,-2.39521 -0.88268,-1.51255 -0.88268,-3.3036 0,-1.79106 0.88268,-3.30362 0.88267,-1.51254 2.39522,-2.39522 1.51254,-0.88266 3.3036,-0.88266 1.79105,0 3.3036,0.88266 1.51254,0.88268 2.39523,2.39522 0.88268,1.51256 0.88268,3.30362 z"
       inkscape:connector-curvature="0"
       style="fill:#ff0000;stroke:#ff0000;stroke-width:1.64537466;stroke-miterlimit:4;stroke-dasharray:none" />
    <path
       id="path9361"
       d="m 541.5842,1050.5305 0.72882,0 0,-11.6072 -0.72882,0 q -0.72885,0 -1.45767,-0.2176 -0.72885,-0.2176 -1.31191,-0.671 -0.58307,-0.4535 -1.02038,-0.8343 -0.43729,-0.3809 -1.02037,-0.9794 -0.0422,-0.054 -0.0744,-0.082 -0.0307,-0.027 -0.0846,-0.082 -0.0524,-0.054 -0.0946,-0.091 -1.53056,-1.469 -2.37601,-2.6297 -0.29154,-0.399 -0.8746,-1.2332 -0.0204,-0.054 -0.29153,-0.4081 -0.14575,-0.3537 -0.43731,-0.6529 -0.14575,-0.2993 -0.43731,-0.6439 -0.29152,-0.3445 -0.43729,-0.5531 -0.29154,-0.2086 -0.4373,-0.2086 -1.5014,0 -2.44889,0.5532 -0.8746,0.5531 -0.8746,1.7683 0,0.7798 0.29152,1.5325 0.29154,0.7526 0.72885,1.2332 0.4373,0.4806 0.72882,0.9975 0.29154,0.5169 0.29154,0.8796 l -12.20071,0 q -1.02036,0 -1.88039,0.6983 -0.87461,0.6982 -0.87461,1.6231 0,0.9431 0.87461,1.6323 0.8746,0.6892 1.90954,0.6892 l 7.0114,0 q -0.29152,0.3083 -0.58306,0.8614 -0.14575,0.5532 -0.14575,1.0066 0,1.2514 1.16614,2.1582 -0.43731,0.5804 -0.43731,1.2514 0,0.671 0.43731,1.333 0.4373,0.662 1.02036,0.9521 -0.0846,0.4353 -0.0846,1.0157 0,1.5415 1.02037,2.2851 1.02036,0.7436 2.87161,0.7436 1.77837,0 3.87741,-0.5803 2.09905,-0.5804 4.11063,-1.1608 2.01158,-0.5803 3.54215,-0.5803 z m 6.09306,-1.1607 q 0,-0.4716 -0.43729,-0.8162 -0.43731,-0.3446 -1.02039,-0.3446 -0.58305,0 -1.02036,0.3446 -0.43731,0.3446 -0.43731,0.8162 0,0.4715 0.43731,0.8161 0.43731,0.3446 1.02036,0.3446 0.58308,0 1.02039,-0.3446 0.43729,-0.3446 0.43729,-0.8161 z m 2.71127,-10.4465 0,11.6072 q 0,0.9612 -0.72882,1.6413 -0.72885,0.6801 -1.92413,0.6801 l -6.09308,0 q -1.31191,0 -4.72286,1.07 -4.02318,1.2514 -6.71986,1.2514 -3.00281,0 -4.86862,-1.4055 -1.86583,-1.4056 -1.83668,-3.9446 l 0.022,-0.091 q -1.31191,-1.3784 -1.31191,-3.2283 0,-0.399 0.0642,-0.7798 -0.72884,-1.0338 -0.72884,-2.1582 l -3.58587,0 q -2.23023,0 -3.81909,-1.3784 -1.60345,-1.3783 -1.60345,-3.2826 0,-1.8681 1.60345,-3.2464 1.61801,-1.3783 3.81909,-1.3783 l 7.91516,0 q -0.43731,-1.0882 -0.43731,-2.3215 0,-2.2126 1.72006,-3.4277 1.72006,-1.2151 4.37302,-1.2151 0.8746,0 1.47225,0.3173 0.72883,0.3174 1.16613,0.8978 0.43731,0.5803 0.87462,1.1426 0.29152,0.5622 0.72882,1.3058 0.43731,0.7435 0.72883,1.1244 0.72885,0.9975 2.11364,2.3396 0.0422,0.054 0.29152,0.3083 0.29154,0.2539 0.43731,0.3899 0.14575,0.1361 0.43731,0.3899 0.29152,0.254 0.43729,0.4081 0.29153,0.1542 0.4373,0.3265 0.29154,0.1723 0.43731,0.2539 0.29154,0.082 0.43729,0.082 l 6.10765,0 q 1.16614,0 1.90956,0.6801 0.72882,0.6801 0.72882,1.6413 z"
       inkscape:connector-curvature="0" />
    <path
       style="fill:none;fill-rule:evenodd;stroke:#000000;stroke-width:1px;stroke-linecap:butt;stroke-linejoin:miter;stroke-opacity:1"
       d="m 572.28632,962.2414 c -60.60916,73.2361 -60.60916,73.2361 -60.60916,73.2361"
       id="path10118"
       inkscape:connector-curvature="0" />
    <path
       id="path10183"
       d="m 635.23811,1030.1653 q 0,-2.4843 -1.75781,-4.2422 -1.75781,-1.7578 -4.24219,-1.7578 -2.48437,0 -4.24219,1.7578 -1.75781,1.7579 -1.75781,4.2422 0,2.4844 1.75781,4.2422 1.75782,1.7578 4.24219,1.7578 2.48438,0 4.24219,-1.7578 1.75781,-1.7578 1.75781,-4.2422 z m 6,0 q 0,2.5547 -0.77344,4.1953 l -8.53125,18.1407 q -0.375,0.7734 -1.11328,1.2187 -0.73828,0.4453 -1.58203,0.4453 -0.84375,0 -1.58203,-0.4453 -0.73828,-0.4453 -1.08984,-1.2187 l -8.55469,-18.1407 q -0.77344,-1.6406 -0.77344,-4.1953 0,-4.9687 3.51563,-8.4843 3.51562,-3.5157 8.48437,-3.5157 4.96875,0 8.48438,3.5157 3.51562,3.5156 3.51562,8.4843 z"
       inkscape:connector-curvature="0"
       style="fill:#ff0000" />
    <path
       id="path10263"
       d="m 616.44611,1049.7653 3.13723,3.144 q 0.2288,0.2292 0.22851,0.5238 -3.6e-4,0.2943 -0.22961,0.5231 l -20.43558,20.3923 3.66022,3.668 q 0.34315,0.3439 0.16271,0.7854 -0.18036,0.4414 -0.65517,0.4895 l -12.00691,0.5435 q -0.32717,-4e-4 -0.53955,-0.2132 -0.22879,-0.2292 -0.22837,-0.5564 l 0.50345,-12.0712 q 0.0332,-0.4907 0.47507,-0.6701 0.45823,-0.1631 0.78496,0.1643 l 3.66023,3.6681 20.43557,-20.3925 q 0.22925,-0.2287 0.52362,-0.2285 0.29445,4e-4 0.52325,0.2296 z"
       inkscape:connector-curvature="0"
       inkscape:transform-center-y="-0.99425379"
       inkscape:transform-center-x="-0.58492633"
       style="fill:#00ccff" />
    <g
       transform="translate(426.64308,749.92857)"
       id="layer1-1"
       inkscape:label="Layer 1">
      <g
         transform="matrix(14.628572,0,0,14.628572,49.481944,163.09139)"
         id="g7350">
        <path
           sodipodi:nodetypes="cccccccc"
           inkscape:connector-curvature="0"
           id="rect7346"
           d="m 6.5995732,3.6705934 0,3.3739087 0.5622291,0 1.736869,3.0890199 -0.4854386,-3.0890199 4.3409533,0 0,-3.3739087 z"
           style="fill:#ffe680;fill-opacity:1;stroke:#fbff01;stroke-width:0;stroke-miterlimit:4;stroke-dasharray:none;stroke-opacity:1" />
      </g>
      <text
         sodipodi:linespacing="125%"
         id="text7342"
         y="232.82021"
         x="157.82091"
         style="font-style:italic;font-variant:normal;font-weight:normal;font-stretch:normal;font-size:10px;line-height:125%;font-family:sans-serif;-inkscape-font-specification:'sans-serif, Italic';text-align:start;letter-spacing:0px;word-spacing:0px;writing-mode:lr-tb;text-anchor:start;fill:#808080;fill-opacity:1;stroke:none;stroke-width:1px;stroke-linecap:butt;stroke-linejoin:miter;stroke-opacity:1"
         xml:space="preserve"><tspan
           sodipodi:role="line"
           id="tspan10459"
           x="157.82091"
           y="232.82021">地图中心向手指</tspan><tspan
           sodipodi:role="line"
           id="tspan10461"
           x="157.82091"
           y="245.32021">前进的方向</tspan><tspan
           sodipodi:role="line"
           id="tspan10463"
           x="157.82091"
           y="257.82019">偏移少许</tspan></text>
    </g>
  </g>
</svg>
