<?xml version="1.0" encoding="UTF-8" standalone="no"?>
<!-- Created with Inkscape (http://www.inkscape.org/) -->

<svg
   xmlns:dc="http://purl.org/dc/elements/1.1/"
   xmlns:cc="http://creativecommons.org/ns#"
   xmlns:rdf="http://www.w3.org/1999/02/22-rdf-syntax-ns#"
   xmlns:svg="http://www.w3.org/2000/svg"
   xmlns="http://www.w3.org/2000/svg"
   xmlns:sodipodi="http://sodipodi.sourceforge.net/DTD/sodipodi-0.dtd"
   xmlns:inkscape="http://www.inkscape.org/namespaces/inkscape"
   width="83.940826mm"
   height="144.49779mm"
   viewBox="0 0 297.42813 512.00003"
   id="svg8517"
   version="1.1"
   inkscape:version="0.91 r13725"
   sodipodi:docname="勾勒重点区域-回到出发点.svg">
  <defs
     id="defs8519" />
  <sodipodi:namedview
     id="base"
     pagecolor="#ffffff"
     bordercolor="#666666"
     borderopacity="1.0"
     inkscape:pageopacity="0.0"
     inkscape:pageshadow="2"
     inkscape:zoom="2.8"
     inkscape:cx="45.391513"
     inkscape:cy="318.77529"
     inkscape:document-units="px"
     inkscape:current-layer="layer1-2"
     showgrid="false"
     fit-margin-top="0"
     fit-margin-left="0"
     fit-margin-right="0"
     fit-margin-bottom="0"
     inkscape:window-width="1680"
     inkscape:window-height="1026"
     inkscape:window-x="0"
     inkscape:window-y="24"
     inkscape:window-maximized="1" />
  <metadata
     id="metadata8522">
    <rdf:RDF>
      <cc:Work
         rdf:about="">
        <dc:format>image/svg+xml</dc:format>
        <dc:type
           rdf:resource="http://purl.org/dc/dcmitype/StillImage" />
        <dc:title></dc:title>
      </cc:Work>
    </rdf:RDF>
  </metadata>
  <g
     inkscape:label="Layer 1"
     inkscape:groupmode="layer"
     id="layer1"
     transform="translate(-125.57165,-243.50505)">
    <path
       style="fill:#006df0"
       inkscape:connector-curvature="0"
       d="m 388.41783,243.50505 -228.26424,0 c -19.01714,0 -34.58194,15.55017 -34.58194,34.58195 l 0,442.8215 c 0,19.03177 15.5648,34.59657 34.58194,34.59657 l 228.26424,0 c 19.01715,0 34.58195,-15.53554 34.58195,-34.58194 l 0,-442.83613 c 0,-19.03178 -15.5648,-34.58195 -34.58195,-34.58195 z m -150.64503,24.92709 73.02583,0 c 2.31131,0 4.18377,1.87246 4.18377,4.1984 0,2.31131 -1.87246,4.18377 -4.18377,4.18377 l -73.02583,0 c -2.31132,0 -4.18377,-1.87246 -4.18377,-4.18377 0,-2.32594 1.87245,-4.1984 4.18377,-4.1984 z m 36.51291,469.78196 c -9.55245,0 -17.29097,-7.73852 -17.29097,-17.3056 0,-9.56709 7.73852,-17.29097 17.29097,-17.29097 9.55246,0 17.29098,7.72388 17.29098,17.29097 0,9.56708 -7.73852,17.3056 -17.29098,17.3056 z m 124.65006,-46.70903 -249.30012,0 0,-393.1575 249.30012,0 0,393.1575 z"
       id="path4256" />
    <g
       transform="translate(267.93137,-238.46714)"
       id="layer1-2"
       inkscape:label="Layer 1">
      <rect
         y="536.08203"
         x="-117.11617"
         height="26.846088"
         width="248.51807"
         id="rect4903"
         style="fill:#646464;fill-opacity:0.75686275;stroke:none;stroke-width:0.06835937" />
      <path
         inkscape:connector-curvature="0"
         d="m -86.979915,549.27927 0,2.50015 q 0,0.18232 -0.124343,0.29948 -0.124343,0.11717 -0.319488,0.11717 l -17.333324,0 0,2.91685 q 0,0.27347 -0.26387,0.37765 -0.26386,0.10416 -0.48614,-0.0651 l -5.33394,-4.55753 q -0.13882,-0.1302 -0.13882,-0.29948 0,-0.18232 0.13882,-0.31251 l 5.33333,-4.60964 q 0.22216,-0.18231 0.48614,-0.0781 0.26387,0.11717 0.26387,0.37765 l 0,2.91684 17.333319,0 q 0.194414,0 0.319488,0.11718 0.124343,0.11717 0.124343,0.29948 z"
         id="path4999" />
      <text
         sodipodi:linespacing="125%"
         id="text5764"
         y="560.07098"
         x="-77.116173"
         style="font-style:normal;font-variant:normal;font-weight:normal;font-stretch:normal;font-size:25px;line-height:125%;font-family:sans-serif;-inkscape-font-specification:'sans-serif, Normal';text-align:start;letter-spacing:0px;word-spacing:0px;writing-mode:lr-tb;text-anchor:start;fill:#000000;fill-opacity:1;stroke:none;stroke-width:1px;stroke-linecap:butt;stroke-linejoin:miter;stroke-opacity:1"
         xml:space="preserve"><tspan
           id="tspan5768"
           y="560.07098"
           x="-77.116173"
           sodipodi:role="line" /></text>
      <path
         inkscape:connector-curvature="0"
         d="m 126.74105,555.96061 0,2.4545 q 0,0.5114 -0.36458,0.8693 -0.36459,0.358 -0.88542,0.358 l -2.5,0 q -0.52083,0 -0.88542,-0.358 -0.36458,-0.3579 -0.36458,-0.8693 l 0,-2.4545 q 0,-0.5114 0.36458,-0.8693 0.36459,-0.358 0.88542,-0.358 l 2.5,0 q 0.52083,0 0.88542,0.358 0.36458,0.3579 0.36458,0.8693 z m 0,-6.5455 0,2.4546 q 0,0.5113 -0.36458,0.8693 -0.36459,0.3579 -0.88542,0.3579 l -2.5,0 q -0.52083,0 -0.88542,-0.3579 -0.36458,-0.358 -0.36458,-0.8693 l 0,-2.4546 q 0,-0.5113 0.36458,-0.8693 0.36459,-0.3579 0.88542,-0.3579 l 2.5,0 q 0.52083,0 0.88542,0.3579 0.36458,0.358 0.36458,0.8693 z m 0,-6.5454 0,2.4545 q 0,0.5114 -0.36458,0.8693 -0.36459,0.358 -0.88542,0.358 l -2.5,0 q -0.52083,0 -0.88542,-0.358 -0.36458,-0.3579 -0.36458,-0.8693 l 0,-2.4545 q 0,-0.5114 0.36458,-0.8693 0.36459,-0.358 0.88542,-0.358 l 2.5,0 q 0.52083,0 0.88542,0.358 0.36458,0.3579 0.36458,0.8693 z"
         id="path5903" />
      <path
         style="fill:none;fill-rule:evenodd;stroke:#000000;stroke-width:1px;stroke-linecap:butt;stroke-linejoin:miter;stroke-opacity:1"
         d="m -46.395228,655.57112 c -64.649762,81.82235 -64.649762,81.82235 -64.649762,81.82235 C 2.09209,864.6727 2.09209,864.6727 2.09209,864.6727 99.06674,780.83003 99.06674,780.83003 99.06674,780.83003 10.17331,755.57622 10.17331,755.57622 10.17331,755.57622 -34.2734,664.66249 -35.28355,663.65234 -35.28355,663.65234 l 0,0 0,0 0,0"
         id="path9148"
         inkscape:connector-curvature="0" />
      <path
         id="path9231"
         d="m -111.28867,735.03738 q -0.77083,0 -1.42188,0.38021 -0.65104,0.38021 -1.03125,1.03125 -0.3802,0.65104 -0.3802,1.42188 0,0.77083 0.3802,1.42187 0.38021,0.65104 1.03125,1.03125 0.65105,0.38021 1.42188,0.38021 0.77083,0 1.42187,-0.38021 0.65105,-0.38021 1.03126,-1.03125 0.3802,-0.65104 0.3802,-1.42187 0,-0.77084 -0.3802,-1.42188 -0.38021,-0.65104 -1.03126,-1.03125 -0.65104,-0.38021 -1.42187,-0.38021 z m 4,2.83334 q 0,1.08854 -0.53646,2.00781 -0.53646,0.91927 -1.45573,1.45573 -0.91927,0.53646 -2.00781,0.53646 -1.08854,0 -2.00781,-0.53646 -0.91927,-0.53646 -1.45573,-1.45573 -0.53646,-0.91927 -0.53646,-2.00781 0,-1.08854 0.53646,-2.00782 0.53646,-0.91927 1.45573,-1.45573 0.91927,-0.53645 2.00781,-0.53645 1.08854,0 2.00781,0.53645 0.91927,0.53646 1.45573,1.45573 0.53646,0.91928 0.53646,2.00782 z"
         inkscape:connector-curvature="0" />
      <path
         id="path9231-1"
         d="m 98.056577,778.54096 q -0.77083,0 -1.42188,0.38021 -0.65104,0.38021 -1.03125,1.03125 -0.3802,0.65104 -0.3802,1.42188 0,0.77083 0.3802,1.42187 0.38021,0.65104 1.03125,1.03125 0.65105,0.38021 1.42188,0.38021 0.77083,0 1.42187,-0.38021 0.651053,-0.38021 1.031263,-1.03125 0.3802,-0.65104 0.3802,-1.42187 0,-0.77084 -0.3802,-1.42188 -0.38021,-0.65104 -1.031263,-1.03125 -0.65104,-0.38021 -1.42187,-0.38021 z m 4.000013,2.83334 q 0,1.08854 -0.53646,2.00781 -0.53647,0.91927 -1.45574,1.45573 -0.919273,0.53646 -2.007813,0.53646 -1.08854,0 -2.00781,-0.53646 -0.91927,-0.53646 -1.45573,-1.45573 -0.53646,-0.91927 -0.53646,-2.00781 0,-1.08854 0.53646,-2.00782 0.53646,-0.91927 1.45573,-1.45573 0.91927,-0.53645 2.00781,-0.53645 1.08854,0 2.007813,0.53645 0.91927,0.53646 1.45574,1.45573 0.53646,0.91928 0.53646,2.00782 z"
         inkscape:connector-curvature="0" />
      <path
         id="path9231-1-6"
         d="m 1.740577,861.15783 q -0.77083,0 -1.42188,0.38021 -0.65104,0.38021 -1.03125,1.03125 -0.3802,0.65104 -0.3802,1.42188 0,0.77083 0.3802,1.42187 0.38021,0.65104 1.03125,1.03125 0.65105,0.38021 1.42188,0.38021 0.77083,0 1.42187,-0.38021 0.65105,-0.38021 1.03126,-1.03125 0.3802,-0.65104 0.3802,-1.42187 0,-0.77084 -0.3802,-1.42188 -0.38021,-0.65104 -1.03126,-1.03125 -0.65104,-0.38021 -1.42187,-0.38021 z m 4.00001,2.83334 q 0,1.08854 -0.53646,2.00781 -0.53647,0.91927 -1.45574,1.45573 -0.91927,0.53646 -2.00781,0.53646 -1.08854,0 -2.00781,-0.53646 -0.91927,-0.53646 -1.45573,-1.45573 -0.53646,-0.91927 -0.53646,-2.00781 0,-1.08854 0.53646,-2.00782 0.53646,-0.91927 1.45573,-1.45573 0.91927,-0.53645 2.00781,-0.53645 1.08854,0 2.00781,0.53645 0.91927,0.53646 1.45574,1.45573 0.53646,0.91928 0.53646,2.00782 z"
         inkscape:connector-curvature="0" />
      <path
         id="path9231-1-6-2"
         d="m -35.522114,661.34058 q -0.77083,0 -1.42188,0.38021 -0.65104,0.38021 -1.03125,1.03125 -0.3802,0.65104 -0.3802,1.42188 0,0.77083 0.3802,1.42187 0.38021,0.65104 1.03125,1.03125 0.65105,0.38021 1.42188,0.38021 0.77083,0 1.42187,-0.38021 0.65105,-0.38021 1.03126,-1.03125 0.3802,-0.65104 0.3802,-1.42187 0,-0.77084 -0.3802,-1.42188 -0.38021,-0.65104 -1.03126,-1.03125 -0.65104,-0.38021 -1.42187,-0.38021 z m 4.00001,2.83334 q 0,1.08854 -0.53646,2.00781 -0.53647,0.91927 -1.45574,1.45573 -0.91927,0.53646 -2.00781,0.53646 -1.08854,0 -2.00781,-0.53646 -0.91927,-0.53646 -1.45573,-1.45573 -0.53646,-0.91927 -0.53646,-2.00781 0,-1.08854 0.53646,-2.00782 0.53646,-0.91927 1.45573,-1.45573 0.91927,-0.53645 2.00781,-0.53645 1.08854,0 2.00781,0.53645 0.91927,0.53646 1.45574,1.45573 0.53646,0.91928 0.53646,2.00782 z"
         inkscape:connector-curvature="0"
         style="stroke:#ff6600;stroke-width:1;stroke-miterlimit:4;stroke-dasharray:none" />
      <path
         id="path9231-1-6-2-9"
         d="m -47.531658,652.04559 q -1.268303,0 -2.339525,0.62558 -1.071205,0.62559 -1.696792,1.69679 -0.625572,1.07121 -0.625572,2.33953 0,1.2683 0.625572,2.33951 0.625587,1.0712 1.696792,1.69679 1.071222,0.62559 2.339525,0.62559 1.268304,0 2.339509,-0.62559 1.071222,-0.62559 1.696809,-1.69679 0.625572,-1.07121 0.625572,-2.33951 0,-1.26832 -0.625572,-2.33953 -0.625587,-1.0712 -1.696809,-1.69679 -1.071205,-0.62558 -2.339509,-0.62558 z m 6.581516,4.6619 q 0,1.79105 -0.882678,3.3036 -0.882695,1.51254 -2.395238,2.39521 -1.512544,0.88269 -3.3036,0.88269 -1.791055,0 -3.303599,-0.88269 -1.512543,-0.88267 -2.395221,-2.39521 -0.882678,-1.51255 -0.882678,-3.3036 0,-1.79106 0.882678,-3.30362 0.882678,-1.51254 2.395221,-2.39522 1.512544,-0.88266 3.303599,-0.88266 1.791056,0 3.3036,0.88266 1.512543,0.88268 2.395238,2.39522 0.882678,1.51256 0.882678,3.30362 z"
         inkscape:connector-curvature="0"
         style="stroke:#ff0000;stroke-width:1.64537466;stroke-miterlimit:4;stroke-dasharray:none;fill:#ff0000" />
      <path
         id="path9361"
         d="m -7.2347724,675.75792 0.7288267,0 0,-11.60714 -0.7288267,0 q -0.7288457,0 -1.4576724,-0.21764 -0.7288457,-0.21763 -1.3119032,-0.67103 -0.583077,-0.45341 -1.020384,-0.83427 -0.437289,-0.38086 -1.020365,-0.97934 -0.04221,-0.0545 -0.07439,-0.0816 -0.03066,-0.0272 -0.08461,-0.0816 -0.05243,-0.0545 -0.09464,-0.0907 -1.530567,-1.46902 -2.376013,-2.62974 -0.291538,-0.399 -0.874596,-1.23325 -0.02044,-0.0545 -0.291538,-0.40807 -0.14575,-0.35366 -0.437307,-0.6529 -0.145751,-0.29926 -0.437308,-0.64384 -0.291519,-0.34459 -0.437288,-0.55315 -0.291539,-0.20857 -0.437308,-0.20857 -1.501397,0 -2.448887,0.55316 -0.874596,0.55314 -0.874596,1.76827 0,0.77986 0.291519,1.53251 0.291539,0.75264 0.728846,1.23326 0.437307,0.48061 0.728827,0.99748 0.291538,0.51689 0.291538,0.8796 l -12.200712,0 q -1.020365,0 -1.880386,0.69826 -0.874615,0.69824 -0.874615,1.62318 0,0.94307 0.874615,1.63225 0.874596,0.68918 1.909536,0.68918 l 7.011399,0 q -0.291519,0.30831 -0.583058,0.86147 -0.14575,0.55314 -0.14575,1.00655 0,1.2514 1.166134,2.1582 -0.437307,0.58036 -0.437307,1.2514 0,0.67104 0.437307,1.33301 0.437308,0.66197 1.020365,0.95214 -0.08461,0.43527 -0.08461,1.01563 0,1.54157 1.020365,2.28516 1.020365,0.74358 2.871619,0.74358 1.778361,0 3.87741,-0.58036 2.09905,-0.58035 4.11063,-1.16071 2.0115796,-0.58036 3.5421461,-0.58036 z m 6.093059,-1.16071 q 0,-0.47154 -0.4372885,-0.81613 -0.4373074,-0.34458 -1.020384,-0.34458 -0.5830576,0 -1.020365,0.34458 -0.4373074,0.34459 -0.4373074,0.81613 0,0.47153 0.4373074,0.81613 0.4373074,0.34458 1.020365,0.34458 0.5830766,0 1.020384,-0.34458 0.4372885,-0.3446 0.4372885,-0.81613 z m 2.7112756,-10.44643 0,11.60714 q 0,0.96122 -0.72882682,1.64132 -0.7288456,0.68011 -1.92412978,0.68011 l -6.0930779,0 q -1.3119033,0 -4.7228557,1.07003 -4.023179,1.2514 -6.719861,1.2514 -3.002814,0 -4.868625,-1.40556 -1.865829,-1.40554 -1.836679,-3.94461 l 0.02196,-0.0907 q -1.311903,-1.37835 -1.311903,-3.22823 0,-0.399 0.06417,-0.77987 -0.728846,-1.03376 -0.728846,-2.1582 l -3.585872,0 q -2.230224,0 -3.81909,-1.37834 -1.603442,-1.37835 -1.603442,-3.28265 0,-1.86803 1.603442,-3.24637 1.618016,-1.37834 3.81909,-1.37834 l 7.915164,0 q -0.437307,-1.08817 -0.437307,-2.32144 0,-2.21261 1.72006,-3.42774 1.720061,-1.21511 4.373018,-1.21511 0.874595,0 1.472247,0.31738 0.728827,0.31739 1.166134,0.89773 0.437308,0.58037 0.874615,1.14258 0.291519,0.56223 0.728827,1.3058 0.437307,0.74359 0.728827,1.12446 0.728845,0.99748 2.113643,2.33955 0.04221,0.0545 0.2915191,0.30832 0.2915382,0.25391 0.4373074,0.38993 0.1457502,0.13609 0.4373074,0.38992 0.2915193,0.25392 0.4372884,0.40807 0.2915383,0.15416 0.4373075,0.32645 0.2915382,0.1723 0.4373074,0.25391 0.2915382,0.0816 0.4372884,0.0816 l 6.107653,0 q 1.16613408,0 1.90955478,0.6801 0.72882682,0.68012 0.72882682,1.64133 z"
         inkscape:connector-curvature="0" />
    </g>
  </g>
</svg>
