<?xml version="1.0" encoding="UTF-8" standalone="no"?>
<!-- Generator: Adobe Illustrator 16.0.0, SVG Export Plug-In . SVG Version: 6.00 Build 0)  -->

<svg
   xmlns:dc="http://purl.org/dc/elements/1.1/"
   xmlns:cc="http://creativecommons.org/ns#"
   xmlns:rdf="http://www.w3.org/1999/02/22-rdf-syntax-ns#"
   xmlns:svg="http://www.w3.org/2000/svg"
   xmlns="http://www.w3.org/2000/svg"
   xmlns:sodipodi="http://sodipodi.sourceforge.net/DTD/sodipodi-0.dtd"
   xmlns:inkscape="http://www.inkscape.org/namespaces/inkscape"
   version="1.1"
   id="Capa_1"
   x="0px"
   y="0px"
   width="297.42813"
   height="512"
   viewBox="0 0 20.332001 35"
   xml:space="preserve"
   inkscape:version="0.91 r13725"
   sodipodi:docname="重点区域列表.svg"><metadata
     id="metadata4292"><rdf:RDF><cc:Work
         rdf:about=""><dc:format>image/svg+xml</dc:format><dc:type
           rdf:resource="http://purl.org/dc/dcmitype/StillImage" /><dc:title></dc:title></cc:Work></rdf:RDF></metadata><defs
     id="defs4290" /><sodipodi:namedview
     pagecolor="#ffffff"
     bordercolor="#666666"
     borderopacity="1"
     objecttolerance="10"
     gridtolerance="10"
     guidetolerance="10"
     inkscape:pageopacity="0"
     inkscape:pageshadow="2"
     inkscape:window-width="1680"
     inkscape:window-height="1026"
     id="namedview4288"
     showgrid="false"
     inkscape:zoom="1.84375"
     inkscape:cx="88.850687"
     inkscape:cy="335.45418"
     inkscape:window-x="0"
     inkscape:window-y="24"
     inkscape:window-maximized="1"
     inkscape:current-layer="Capa_1"
     fit-margin-top="0"
     fit-margin-left="0"
     fit-margin-right="0"
     fit-margin-bottom="0" /><g
     id="g4254"
     transform="translate(-7.334,0)"><path
       d="M 25.302,0 9.698,0 C 8.398,0 7.334,1.063 7.334,2.364 l 0,30.271 C 7.334,33.936 8.398,35 9.698,35 l 15.604,0 c 1.3,0 2.364,-1.062 2.364,-2.364 l 0,-30.272 C 27.666,1.063 26.602,0 25.302,0 Z m -10.298,1.704 4.992,0 c 0.158,0 0.286,0.128 0.286,0.287 0,0.158 -0.128,0.286 -0.286,0.286 l -4.992,0 c -0.158,0 -0.286,-0.128 -0.286,-0.286 0,-0.159 0.128,-0.287 0.286,-0.287 z M 17.5,33.818 c -0.653,0 -1.182,-0.529 -1.182,-1.183 0,-0.654 0.529,-1.182 1.182,-1.182 0.653,0 1.182,0.528 1.182,1.182 0,0.654 -0.529,1.183 -1.182,1.183 z m 8.521,-3.193 -17.042,0 0,-26.876 17.042,0 0,26.876 z"
       id="path4256"
       inkscape:connector-curvature="0"
       style="fill:#006df0" /></g><g
     id="g4258"
     transform="translate(-7.334,0)" /><g
     id="g4260"
     transform="translate(-7.334,0)" /><g
     id="g4262"
     transform="translate(-7.334,0)" /><g
     id="g4264"
     transform="translate(-7.334,0)" /><g
     id="g4266"
     transform="translate(-7.334,0)" /><g
     id="g4268"
     transform="translate(-7.334,0)" /><g
     id="g4270"
     transform="translate(-7.334,0)" /><g
     id="g4272"
     transform="translate(-7.334,0)" /><g
     id="g4274"
     transform="translate(-7.334,0)" /><g
     id="g4276"
     transform="translate(-7.334,0)" /><g
     id="g4278"
     transform="translate(-7.334,0)" /><g
     id="g4280"
     transform="translate(-7.334,0)" /><g
     id="g4282"
     transform="translate(-7.334,0)" /><g
     id="g4284"
     transform="translate(-7.334,0)" /><g
     id="g4286"
     transform="translate(-7.334,0)" /><text
     xml:space="preserve"
     style="font-style:normal;font-weight:normal;font-size:2.73437476px;line-height:125%;font-family:sans-serif;letter-spacing:0px;word-spacing:0px;fill:#000000;fill-opacity:1;stroke:none;stroke-width:0;stroke-linecap:butt;stroke-linejoin:miter;stroke-opacity:1;stroke-miterlimit:4;stroke-dasharray:none;"
     x="2.1565108"
     y="6.7906332"
     id="text5010"
     sodipodi:linespacing="125%"><tspan
       sodipodi:role="line"
       id="tspan5012"
       x="2.1565108"
       y="6.7906332"
       style="font-style:normal;font-variant:normal;font-weight:normal;font-stretch:normal;font-size:1.3671875px;line-height:125%;font-family:sans-serif;-inkscape-font-specification:'sans-serif, Normal';text-align:start;writing-mode:lr-tb;text-anchor:start;stroke-width:0;stroke-miterlimit:4;stroke-dasharray:none;fill:#000000;">2016-3-24</tspan></text>
<rect
     style="fill:#c2f2ff;fill-opacity:1;stroke:none;stroke-width:0.06835937;stroke-miterlimit:4;stroke-dasharray:none"
     id="rect5014"
     width="17.022982"
     height="8.2720766"
     x="1.6321732"
     y="7.1052361" /><rect
     style="fill:#c2f2ff;fill-opacity:1;stroke:#ff0000;stroke-width:0.05175552"
     id="rect5016-4"
     width="4.3118653"
     height="4.7858005"
     x="2.9514728"
     y="8.7852392" /><path
     style="fill:#ffaaaa;fill-opacity:1;fill-rule:evenodd;stroke:#000000;stroke-width:0.05175552px;stroke-linecap:butt;stroke-linejoin:miter;stroke-opacity:1"
     d="M 3.85889,9.6278266 C 3.166129,11.757103 3.166129,11.757103 3.166129,11.757103 c 0.959208,1.153357 0.959208,1.153357 0.959208,1.153357 2.531242,0 2.531242,0 2.531242,0 C 7.162828,11.19521 7.162828,11.19521 7.162828,11.19521 5.40428,10.722038 5.40428,10.722038 5.40428,10.722038 3.805601,9.7165466 3.85889,9.6278266 3.85889,9.6278266 Z"
     id="path5018-0"
     inkscape:connector-curvature="0" /><text
     xml:space="preserve"
     style="font-style:normal;font-variant:normal;font-weight:normal;font-stretch:normal;font-size:0.51755524px;line-height:50%;font-family:sans-serif;-inkscape-font-specification:'sans-serif, Normal';text-align:start;letter-spacing:0px;word-spacing:0px;writing-mode:lr-tb;text-anchor:start;fill:#000000;fill-opacity:1;stroke:none;stroke-width:1px;stroke-linecap:butt;stroke-linejoin:miter;stroke-opacity:1"
     x="3.812804"
     y="13.528254"
     id="text5020-5"
     sodipodi:linespacing="50%"
     transform="scale(0.94919473,1.0535246)"><tspan
       sodipodi:role="line"
       id="tspan5022-8"
       x="3.812804"
       y="13.528254"
       style="font-style:normal;font-variant:normal;font-weight:normal;font-stretch:normal;font-size:0.51755524px;line-height:50%;font-family:sans-serif;-inkscape-font-specification:'sans-serif, Normal';text-align:start;writing-mode:lr-tb;text-anchor:start">浙江省图书馆</tspan></text>
<rect
     style="fill:#c2f2ff;fill-opacity:1;stroke:#01ff1f;stroke-width:0.05175552;stroke-opacity:1"
     id="rect5016-4-1"
     width="4.3118653"
     height="4.7858009"
     x="8.4179068"
     y="8.710393" /><path
     style="fill:#ffaaaa;fill-opacity:1;fill-rule:evenodd;stroke:#000000;stroke-width:0.05175552px;stroke-linecap:butt;stroke-linejoin:miter;stroke-opacity:1"
     d="M 9.325324,9.5529807 C 8.632563,11.682257 8.632563,11.682257 8.632563,11.682257 c 0.959208,1.153357 0.959208,1.153357 0.959208,1.153357 2.531242,0 2.531242,0 2.531242,0 0.506249,-1.71525 0.506249,-1.71525 0.506249,-1.71525 C 10.870714,10.647192 10.870714,10.647192 10.870714,10.647192 9.272035,9.6417007 9.325324,9.5529807 9.325324,9.5529807 Z"
     id="path5018-0-4"
     inkscape:connector-curvature="0" /><text
     xml:space="preserve"
     style="font-style:normal;font-variant:normal;font-weight:normal;font-stretch:normal;font-size:0.51755524px;line-height:50%;font-family:sans-serif;-inkscape-font-specification:'sans-serif, Normal';text-align:start;letter-spacing:0px;word-spacing:0px;writing-mode:lr-tb;text-anchor:start;fill:#000000;fill-opacity:1;stroke:none;stroke-width:1px;stroke-linecap:butt;stroke-linejoin:miter;stroke-opacity:1"
     x="9.571825"
     y="13.45721"
     id="text5020-5-2"
     sodipodi:linespacing="50%"
     transform="scale(0.94919473,1.0535246)"><tspan
       sodipodi:role="line"
       id="tspan5022-8-8"
       x="9.571825"
       y="13.45721"
       style="font-style:normal;font-variant:normal;font-weight:normal;font-stretch:normal;font-size:0.51755524px;line-height:50%;font-family:sans-serif;-inkscape-font-specification:'sans-serif, Normal';text-align:start;writing-mode:lr-tb;text-anchor:start">杭州东站</tspan></text>
<text
     xml:space="preserve"
     style="font-style:normal;font-weight:normal;font-size:2.73437476px;line-height:125%;font-family:sans-serif;letter-spacing:0px;word-spacing:0px;fill:#000000;fill-opacity:1;stroke:none;stroke-width:1px;stroke-linecap:butt;stroke-linejoin:miter;stroke-opacity:1"
     x="1.7684437"
     y="16.848305"
     id="text5010-2"
     sodipodi:linespacing="125%"><tspan
       sodipodi:role="line"
       id="tspan5012-2"
       x="1.7684437"
       y="16.848305"
       style="font-style:normal;font-variant:normal;font-weight:normal;font-stretch:normal;font-size:1.3671875px;line-height:125%;font-family:sans-serif;-inkscape-font-specification:'sans-serif, Normal';text-align:start;writing-mode:lr-tb;text-anchor:start">2016-3-14</tspan></text>
<rect
     style="fill:#c2f2ff;fill-opacity:1;stroke:none;stroke-width:0.06835937;stroke-miterlimit:4;stroke-dasharray:none"
     id="rect5014-2"
     width="17.022982"
     height="8.2720766"
     x="1.6915852"
     y="17.256969" /><rect
     style="fill:#c2f2ff;fill-opacity:1;stroke:#01ff1f;stroke-width:0.05175552;stroke-opacity:1"
     id="rect5016-4-7"
     width="4.3118653"
     height="4.7858009"
     x="3.0108848"
     y="18.936974" /><path
     style="fill:#ffaaaa;fill-opacity:1;fill-rule:evenodd;stroke:#000000;stroke-width:0.05175552px;stroke-linecap:butt;stroke-linejoin:miter;stroke-opacity:1"
     d="m 3.918302,19.779561 c -0.692761,2.129276 -0.692761,2.129276 -0.692761,2.129276 0.959208,1.153357 0.959208,1.153357 0.959208,1.153357 2.531242,0 2.531242,0 2.531242,0 C 7.22224,21.346944 7.22224,21.346944 7.22224,21.346944 5.463692,20.873772 5.463692,20.873772 5.463692,20.873772 3.865013,19.868281 3.918302,19.779561 3.918302,19.779561 Z"
     id="path5018-0-3"
     inkscape:connector-curvature="0" /><text
     xml:space="preserve"
     style="font-style:normal;font-variant:normal;font-weight:normal;font-stretch:normal;font-size:0.51755524px;line-height:50%;font-family:sans-serif;-inkscape-font-specification:'sans-serif, Normal';text-align:start;letter-spacing:0px;word-spacing:0px;writing-mode:lr-tb;text-anchor:start;fill:#000000;fill-opacity:1;stroke:none;stroke-width:1px;stroke-linecap:butt;stroke-linejoin:miter;stroke-opacity:1"
     x="3.8753955"
     y="23.164227"
     id="text5020-5-0"
     sodipodi:linespacing="50%"
     transform="scale(0.94919473,1.0535246)"><tspan
       sodipodi:role="line"
       id="tspan5022-8-1"
       x="3.8753955"
       y="23.164227"
       style="font-style:normal;font-variant:normal;font-weight:normal;font-stretch:normal;font-size:0.51755524px;line-height:50%;font-family:sans-serif;-inkscape-font-specification:'sans-serif, Normal';text-align:start;writing-mode:lr-tb;text-anchor:start">西湖文化馆</tspan></text>
<g
     id="g7350"
     transform="translate(1.7055085,0.96398305)"><path
       style="fill:#ffe680;fill-opacity:1;stroke:#fbff01;stroke-width:0;stroke-miterlimit:4;stroke-dasharray:none;stroke-opacity:1"
       d="m 6.5995732,3.6705934 0,3.3739087 0.5622291,0 -2.4623496,3.0523989 3.71378,-3.0523989 4.3409533,0 0,-3.3739087 z"
       id="rect7346"
       inkscape:connector-curvature="0"
       sodipodi:nodetypes="cccccccc" /></g><text
     xml:space="preserve"
     style="font-style:italic;font-variant:normal;font-weight:normal;font-stretch:normal;font-size:0.68359375px;line-height:125%;font-family:sans-serif;-inkscape-font-specification:'sans-serif, Italic';text-align:start;letter-spacing:0px;word-spacing:0px;writing-mode:lr-tb;text-anchor:start;fill:#808080;fill-opacity:1;stroke:none;stroke-width:1px;stroke-linecap:butt;stroke-linejoin:miter;stroke-opacity:1"
     x="8.5646172"
     y="6.4141946"
     id="text7342"
     sodipodi:linespacing="125%"><tspan
       sodipodi:role="line"
       id="tspan7344"
       x="8.5646172"
       y="6.4141946">红圈代表尚未同步</tspan></text>
</svg>